<?xml version="1.0" standalone="no"?>
<!DOCTYPE svg PUBLIC "-//W3C//DTD SVG 20010904//EN"
 "http://www.w3.org/TR/2001/REC-SVG-20010904/DTD/svg10.dtd">
<svg version="1.0" xmlns="http://www.w3.org/2000/svg"
 width="900.000000pt" height="520.000000pt" viewBox="0 0 900.000000 520.000000"
 preserveAspectRatio="xMidYMid meet">

<g transform="translate(0.000000,520.000000) scale(0.100000,-0.100000)"
fill="#000000" stroke="none">
<path d="M4252 5165 c-69 -19 -97 -35 -175 -94 l-65 -50 -65 35 c-232 123
-469 92 -647 -86 -83 -82 -121 -145 -145 -235 -23 -88 -19 -234 10 -346 5 -20
2 -27 -17 -36 -42 -19 -125 -102 -172 -170 -130 -192 -124 -397 17 -551 57
-62 114 -85 202 -85 80 1 113 12 166 53 l37 30 30 -78 c38 -100 92 -268 92
-287 0 -34 18 -7 78 113 168 341 447 612 738 715 71 26 141 40 242 51 l52 6
33 -46 c17 -26 54 -74 81 -108 58 -73 83 -125 93 -196 l8 -53 33 51 c34 53
104 106 153 117 56 13 99 -36 99 -111 0 -80 -111 -141 -295 -164 -86 -10 -130
-19 -167 -35 -15 -6 -17 -1 -11 44 7 65 -11 95 -80 127 -65 30 -107 34 -62 5
17 -10 43 -33 60 -50 39 -42 38 -81 -5 -167 -31 -61 -38 -69 -60 -65 -14 2
-79 4 -145 4 -110 2 -125 -1 -186 -26 -136 -57 -260 -180 -426 -421 -126 -183
-179 -253 -207 -271 -35 -23 -422 -95 -510 -95 -20 0 40 -52 89 -75 123 -61
250 -36 385 75 35 29 72 45 170 73 177 52 269 63 376 47 233 -34 372 -190 399
-447 10 -91 1 -121 -38 -127 -192 -27 -272 -48 -367 -96 -261 -133 -434 -467
-327 -629 90 -136 258 -114 465 59 140 117 245 270 303 440 39 114 34 111 141
81 334 -96 527 -375 464 -670 -23 -111 -46 -163 -65 -155 -126 55 -227 84
-383 109 l-38 6 0 59 0 60 -84 0 -85 0 2 -57 2 -58 -45 -3 c-237 -13 -477 -93
-682 -228 -106 -70 -319 -288 -392 -401 l-60 -91 -90 -16 c-170 -31 -328 -88
-385 -140 -59 -54 -43 -112 45 -166 51 -31 169 -77 238 -94 l28 -7 -21 27
c-39 50 -17 105 56 143 30 15 31 15 38 -19 36 -164 642 -290 1400 -290 317 0
517 19 805 77 147 29 261 65 311 98 21 14 46 43 59 69 26 54 43 57 110 24 57
-29 63 -57 21 -98 -16 -17 -26 -30 -21 -30 21 0 186 53 222 71 127 65 117 150
-28 222 -45 23 -191 68 -311 97 -24 6 -43 15 -43 20 0 5 -27 49 -60 98 -75
112 -218 264 -323 343 -45 34 -83 64 -85 68 -1 3 23 21 53 39 179 107 315 285
367 481 31 118 29 291 -5 396 -15 44 -42 103 -61 131 l-35 52 87 88 c75 76 97
106 146 203 32 62 62 125 66 140 77 242 138 384 213 496 57 84 172 195 239
230 32 17 58 34 58 38 0 20 -32 66 -57 82 -40 27 -119 23 -189 -9 -32 -15 -59
-24 -62 -22 -2 3 37 47 87 99 l91 94 -33 30 c-59 56 -109 67 -172 37 -33 -15
-183 -163 -222 -219 -12 -16 -24 -28 -26 -25 -7 7 38 264 63 359 10 41 17 77
15 79 -2 3 -24 7 -49 9 -55 7 -98 -9 -131 -49 -31 -37 -70 -162 -93 -303 l-19
-110 -28 44 c-16 23 -45 54 -64 67 l-35 23 -50 -47 c-55 -52 -125 -97 -168
-107 -23 -6 -28 -13 -28 -39 0 -43 45 -130 78 -152 15 -10 47 -18 77 -18 l50
-1 -3 -35 c-6 -55 -41 -182 -57 -207 -8 -12 -26 -30 -40 -39 -21 -14 -30 -14
-55 -4 -38 16 -44 36 -31 107 16 83 14 169 -5 206 -36 71 -98 117 -157 117
l-34 0 -6 -68 c-4 -37 -16 -101 -27 -142 -72 -272 -72 -273 -67 -355 3 -58 12
-97 32 -143 15 -34 30 -61 32 -58 2 2 -3 31 -11 64 -19 70 -21 170 -5 227 6
22 33 97 60 167 27 70 49 141 49 158 0 40 20 39 68 -4 42 -39 43 -52 28 -223
-13 -136 16 -185 98 -167 75 16 126 76 157 189 15 53 20 286 7 318 -8 18 -9
18 -34 -2 -39 -31 -80 -27 -115 10 -16 17 -29 35 -29 40 0 4 39 26 87 49 48
22 95 48 105 57 17 15 19 15 33 -3 41 -52 69 -122 75 -189 l6 -70 22 70 c12
39 26 113 32 167 21 197 62 329 114 363 47 31 54 17 40 -72 -7 -43 -13 -100
-14 -128 0 -57 -51 -318 -75 -384 -8 -24 -13 -46 -11 -48 2 -2 30 37 61 87
131 208 290 370 362 370 61 0 56 -17 -34 -124 -93 -110 -209 -279 -249 -360
l-25 -51 32 40 c72 89 226 233 276 259 59 29 110 33 139 11 19 -15 18 -16 -6
-33 -50 -34 -143 -128 -185 -187 -56 -79 -100 -167 -186 -377 -113 -274 -150
-340 -243 -433 -45 -44 -93 -86 -107 -94 -24 -12 -30 -10 -75 22 -120 85 -248
129 -379 129 -195 0 -244 -73 -126 -191 100 -100 261 -133 466 -96 44 8 85 15
91 15 18 0 73 -113 96 -197 27 -101 29 -268 4 -368 -21 -86 -72 -192 -127
-265 -49 -65 -149 -154 -214 -191 l-47 -27 -44 25 c-34 19 -44 30 -38 42 66
160 68 171 68 316 0 128 -2 147 -28 220 -59 170 -171 302 -322 378 -64 32
-177 67 -219 67 -61 0 -65 5 -65 81 0 153 -65 341 -150 433 -75 81 -224 135
-371 136 -67 0 -213 -22 -304 -45 -27 -7 -52 -12 -54 -10 -2 2 30 44 71 92 40
48 99 120 130 158 129 160 207 219 353 266 57 18 97 23 218 25 l148 3 36 32
c52 45 137 82 283 124 213 61 265 96 296 202 29 100 -2 188 -79 223 -23 11
-52 20 -65 20 -38 0 -95 -29 -139 -72 l-42 -41 -7 29 c-10 41 -39 97 -95 182
-53 79 -57 92 -33 92 8 0 46 7 83 16 136 30 197 100 189 215 -3 48 -10 65 -34
90 -57 62 -137 76 -206 37 -76 -43 -91 -122 -34 -182 40 -43 66 -48 36 -8 -16
21 -20 40 -18 72 3 38 8 47 36 63 48 28 103 11 127 -39 57 -120 1 -197 -163
-225 -68 -11 -67 -11 -135 114 -49 89 -91 202 -82 218 4 5 20 9 36 9 40 0 76
20 120 67 64 66 74 96 74 208 0 87 -3 107 -26 155 -39 81 -90 135 -165 171
-58 29 -76 33 -167 36 -69 2 -119 -2 -155 -12z m-447 -96 c69 -19 164 -70 212
-113 l46 -42 50 48 c28 27 80 63 116 81 57 28 76 32 146 32 96 0 153 -24 228
-94 79 -74 105 -144 86 -233 -14 -63 -65 -123 -120 -140 -27 -8 -43 -8 -50 -1
-13 13 -29 121 -29 206 0 37 -4 67 -10 67 -5 0 -25 -14 -44 -30 -46 -41 -70
-105 -64 -172 5 -45 11 -57 49 -92 37 -35 49 -55 76 -138 17 -53 48 -131 69
-173 43 -88 42 -89 -48 -99 -158 -16 -380 -91 -499 -167 -118 -76 -251 -222
-380 -417 -40 -59 -75 -111 -79 -115 -5 -5 -33 40 -63 101 -56 109 -56 109
-51 183 8 119 -33 175 -139 186 -31 3 -57 4 -57 2 0 -3 29 -62 65 -132 35 -70
62 -134 59 -141 -3 -8 -24 -27 -47 -42 -111 -74 -245 -25 -318 116 -20 39 -24
60 -24 150 0 96 2 109 28 159 16 29 50 75 76 101 45 45 161 120 209 135 17 5
21 11 16 23 -40 91 -56 163 -57 257 -2 112 12 181 55 271 51 109 136 187 241
219 52 17 198 19 252 4z m645 -349 c0 -38 -2 -70 -6 -70 -3 0 -11 15 -19 34
-11 25 -12 42 -4 70 16 57 29 42 29 -34z m-1091 -826 c37 -26 81 -144 54 -144
-8 0 -93 141 -93 153 0 11 14 8 39 -9z m53 -1214 c-28 -23 -112 -50 -158 -50
-18 0 -45 5 -61 11 -26 11 -21 13 62 25 50 8 108 18 130 23 22 5 42 9 45 10 3
0 -6 -8 -18 -19z m1752 -255 c100 -21 236 -88 236 -115 0 -13 -87 -30 -152
-30 -74 0 -150 19 -223 55 -65 31 -83 50 -68 73 20 33 100 40 207 17z m-734
-309 c0 -2 -10 -35 -21 -72 -45 -146 -135 -293 -241 -394 -108 -105 -238 -159
-310 -131 -77 30 -89 154 -27 272 79 148 265 285 434 319 42 8 165 13 165 6z
m28 -799 c4 -20 2 -21 -97 -36 -149 -23 -346 -106 -466 -196 -95 -71 -217
-193 -292 -292 -155 -207 -187 -376 -80 -426 77 -37 386 -101 537 -111 67 -5
70 -4 30 5 -307 69 -425 105 -477 145 -33 25 -35 28 -28 73 20 133 136 348
266 495 63 71 190 162 294 212 112 53 231 83 358 91 93 6 97 7 97 30 0 31 25
30 160 -2 141 -34 260 -79 260 -97 0 -15 -67 -114 -106 -157 -20 -23 -32 -41
-27 -41 11 0 133 116 161 153 l21 29 61 -37 c173 -105 328 -251 434 -409 81
-120 108 -186 113 -276 5 -71 3 -77 -25 -116 -38 -52 -90 -77 -239 -115 -280
-71 -629 -105 -963 -95 -425 13 -806 65 -1005 137 -134 49 -185 97 -185 174 0
88 146 328 292 481 190 199 387 312 638 368 184 40 262 44 268 13z"/>
<path d="M4370 1184 c-252 -82 -422 -243 -520 -494 -28 -70 -62 -242 -50 -254
11 -11 117 -35 124 -28 3 3 6 26 6 51 0 91 37 229 89 335 75 154 185 275 326
360 55 33 63 42 25 30z"/>
<path d="M4757 1079 c-32 -18 -49 -74 -37 -117 17 -64 77 -110 124 -96 28 8
66 44 66 61 0 12 -4 11 -22 -1 -31 -22 -52 -20 -87 10 -49 41 -42 112 14 142
18 10 17 11 -10 11 -16 0 -38 -4 -48 -10z"/>
<path d="M5178 1011 c114 -136 192 -271 251 -434 l33 -88 -19 -32 c-42 -72
-128 -116 -328 -167 -132 -34 -104 -38 66 -9 203 34 318 78 355 134 16 24 15
29 -11 112 -65 208 -206 409 -370 526 -23 17 -17 7 23 -42z"/>
<path d="M4148 243 c7 -3 16 -2 19 1 4 3 -2 6 -13 5 -11 0 -14 -3 -6 -6z"/>
<path d="M4504 4060 c-21 -8 -68 -60 -61 -67 2 -2 32 4 67 13 38 9 79 14 102
10 21 -3 38 -4 38 -2 0 9 -67 44 -95 49 -16 3 -40 2 -51 -3z"/>
<path d="M4024 3851 c-17 -10 -40 -32 -51 -48 -17 -24 -53 -105 -53 -118 0 -3
31 27 69 65 37 38 83 76 102 84 l34 14 -28 11 c-37 14 -37 14 -73 -8z"/>
<path d="M4460 1633 c-35 -23 -80 -65 -80 -75 0 -4 70 -8 155 -8 85 0 155 4
155 8 0 13 -52 58 -87 76 -41 21 -112 21 -143 -1z"/>
<path d="M2900 256 c0 -12 151 -76 290 -124 l135 -46 180 -2 180 -3 -160 28
c-221 39 -521 111 -607 146 -10 4 -18 4 -18 1z"/>
<path d="M6009 235 c-16 -15 -396 -102 -614 -139 l-80 -14 157 -1 158 -1 137
45 c139 46 292 113 262 114 -9 1 -18 -1 -20 -4z"/>
</g>
</svg>
