<?xml version="1.0" encoding="iso-8859-1"?>
<!-- Generator: Adobe Illustrator 19.0.0, SVG Export Plug-In . SVG Version: 6.00 Build 0)  -->
<svg version="1.1" id="Layer_1" xmlns="http://www.w3.org/2000/svg" xmlns:xlink="http://www.w3.org/1999/xlink" x="0px" y="0px"
	 viewBox="0 0 492 492" style="enable-background:new 0 0 492 492;" xml:space="preserve">
<circle style="fill:#A5E5D8;" cx="246" cy="245.6" r="230.4"/>
<path style="fill:#2E3534;" d="M166,181.6V388c0,42.4,37.6,104,80,104s80-61.6,80-104V181.6H166z"/>
<path style="fill:#3E4443;" d="M246,181.6h-80V388c0,42.4,36,104,78.4,104"/>
<polygon style="fill:#4C5655;" points="222.8,109.6 269.2,109.6 303.6,181.6 188.4,181.6 "/>
<polyline style="fill:#2E3534;" points="230,109.6 269.2,109.6 303.6,181.6 "/>
<path style="fill:#EA4811;" d="M326,387.2V181.6H166v205.6c0,4.8,0.8,11.2,1.6,18.4h156C325.2,400.8,326,392,326,387.2z"/>
<path style="fill:#ED6E0F;" d="M167.6,405.6H246v-224h-80v205.6C166,392,166.8,400,167.6,405.6z"/>
<path style="fill:#F4A211;" d="M228.4,354.4c0-9.6,8-17.6,17.6-17.6s17.6,8,17.6,17.6s-8,17.6-17.6,17.6S228.4,364,228.4,354.4z"/>
<path style="fill:#FFC41D;" d="M246,372c-9.6,0-17.6-8-17.6-17.6s8-17.6,17.6-17.6"/>
<path style="fill:#F4A211;" d="M228.4,291.2c0-9.6,8-17.6,17.6-17.6s17.6,8,17.6,17.6s-8,17.6-17.6,17.6S228.4,300.8,228.4,291.2z"
	/>
<path style="fill:#FFC41D;" d="M246,308.8c-9.6,0-17.6-8-17.6-17.6s8-17.6,17.6-17.6"/>
<circle style="fill:#F4A211;" cx="246" cy="228" r="17.6"/>
<path style="fill:#FFC41D;" d="M246,245.6c-9.6,0-17.6-8-17.6-17.6s8-17.6,17.6-17.6"/>
<rect x="214" y="29.6" style="fill:#ED6E0F;" width="64" height="64"/>
<polyline style="fill:#EA4811;" points="214,29.6 278,29.6 278,93.6 "/>
<path style="fill:#4C5655;" d="M271.6,21.6c-2.4-8-9.6-16-18.4-16h-13.6c-8.8,0-16,8-18.4,16H271.6z"/>
<polygon style="fill:#FFC41D;" points="206,97.6 158,68 158,0 206,29.6 "/>
<polyline style="fill:#F4A211;" points="158,0 206,29.6 206,93.6 "/>
<polygon style="fill:#FFC41D;" points="286,97.6 334,68 334,0 286,29.6 "/>
<polyline style="fill:#F4A211;" points="334,0 286,29.6 286,93.6 "/>
<g>
	<path style="fill:#8CC4B7;" d="M114.8,173.6h-14.4l-11.2,16H78v4V260l0,0l0,0c0,9.6,4,20.8,11.2,27.2c3.2,3.2,9.6,5.6,18.4,5.6
		c18.4,0,26.4-20,26.4-32.8l0,0v-70.4h-8L114.8,173.6z"/>
	<rect x="94" y="149.6" style="fill:#8CC4B7;" width="24" height="16"/>
	<path style="fill:#8CC4B7;" d="M109.2,141.6h-4c-2.4,0-4.8,0-5.6,0h16C114.8,141.6,112.4,141.6,109.2,141.6z"/>
	<polygon style="fill:#8CC4B7;" points="94,144.8 78,136 78,157.6 94,167.2 	"/>
	<polygon style="fill:#8CC4B7;" points="118,144.8 118,167.2 134,157.6 134,136 	"/>
	<path style="fill:#8CC4B7;" d="M386.8,253.6h-8l-5.6,16H366v4v27.2l0,0l0,0c0,4.8,4.8,11.2,8.8,15.2c1.6,1.6,6.4,2.4,8,2.4
		c7.2,0,15.2-10.4,15.2-17.6l0,0v-31.2h-5.6L386.8,253.6z"/>
	<rect x="377.2" y="240.8" style="fill:#8CC4B7;" width="10.4" height="11.2"/>
	<path style="fill:#8CC4B7;" d="M383.6,236.8h-2.4c-1.6,0-2.4,0.8-3.2,2.4h8.8C386.8,237.6,385.2,236.8,383.6,236.8z"/>
	<polygon style="fill:#8CC4B7;" points="374,240 366,235.2 366,247.2 374,252 	"/>
	<polygon style="fill:#8CC4B7;" points="390,240 390,252 398,247.2 398,235.2 	"/>
</g>
<g>
</g>
<g>
</g>
<g>
</g>
<g>
</g>
<g>
</g>
<g>
</g>
<g>
</g>
<g>
</g>
<g>
</g>
<g>
</g>
<g>
</g>
<g>
</g>
<g>
</g>
<g>
</g>
<g>
</g>
</svg>
