<?xml version="1.0" encoding="iso-8859-1"?>
<!-- Generator: Adobe Illustrator 19.0.0, SVG Export Plug-In . SVG Version: 6.00 Build 0)  -->
<svg version="1.1" id="Layer_1" xmlns="http://www.w3.org/2000/svg" xmlns:xlink="http://www.w3.org/1999/xlink" x="0px" y="0px"
	 viewBox="0 0 512.356 512.356" style="enable-background:new 0 0 512.356 512.356;" xml:space="preserve">
<g>
	<polygon style="fill:#717272;" points="459.556,190.962 447.716,223.41 456.356,228.21 480.42,198.066 	"/>
	<path style="fill:#717272;" d="M453.028,149.298l-75.008,66.688c-0.384,0.32-0.896,0.576-1.472,0.832
		c-0.32,0-0.576,0.128-0.896,0.192l-50.688,8.512c0,0-0.128,0-0.192,0c-0.064,0-76.672,0-76.672,0l-39.296,7.808l-0.704,3.328
		c-1.024,4.992-6.4,9.92-15.616,14.016c-9.408,4.288-22.4,7.488-36.608,8.896c-4.992,0.576-9.92,0.768-15.104,0.768
		c-8.32,0-16.128-0.768-22.4-2.176c-5.824-1.28-10.304-3.072-13.696-5.504l-1.92-1.408l-46.272,12.608l2.624,9.728l27.392-7.424
		l10.624,0.896l145.6,25.728c0.704,0.128,1.216,0.32,1.6,0.704l12.416,10.496l0.768,0.32c0.576,0.192,0.832,0.384,0.896,0.512
		l86.784,73.024l28.992-7.296l-11.712-46.72l4.416,0.512l1.472-9.92l-78.592-12.096c-1.792-0.32-3.072-1.728-3.072-3.392
		c0-1.792,1.28-3.328,3.008-3.584l101.632-16.896l40.384-28.8l0.32-2.176c0-0.192,0-0.384,0.128-0.704c0-0.128,0-0.192,0-0.384
		l33.088-90.816L453.028,149.298z"/>
	<polygon style="fill:#717272;" points="364.708,211.57 379.748,122.994 368.228,122.994 257.06,218.29 324.068,218.29 	"/>
</g>
<g>
	<path style="fill:#FFFFFF;" d="M192.164,229.874c-3.776-1.28-12.096-3.392-25.408-3.392c-4.544,0-9.344,0.256-14.208,0.768
		c-21.888,2.176-33.792,7.872-37.888,10.176l-6.016,3.456l6.528,2.368c3.584,1.28,11.648,3.456,25.152,3.456l0,0
		c4.608,0,9.536-0.256,14.528-0.768c21.888-2.176,33.792-7.872,37.888-10.176l6.208-3.52L192.164,229.874z"/>
	<path style="fill:#FFFFFF;" d="M191.14,233.01c0.896,0.32,1.728,0.576,2.432,0.896C192.868,233.586,192.036,233.266,191.14,233.01z
		"/>
	<path style="fill:#FFFFFF;" d="M112.036,243.058c0.832-0.832,2.304-1.792,4.096-2.816
		C114.212,241.266,112.868,242.29,112.036,243.058z"/>
</g>
<g>
	<path style="fill:#F4F4F4;" d="M191.14,233.01L191.14,233.01L191.14,233.01z"/>
	<path style="fill:#F4F4F4;" d="M116.132,240.306L116.132,240.306L116.132,240.306z"/>
	<path style="fill:#F4F4F4;" d="M193.508,233.906c0.704,0.32,1.28,0.576,1.728,0.896
		C194.852,234.482,194.212,234.162,193.508,233.906z"/>
	<path style="fill:#F4F4F4;" d="M192.868,230.962l-1.984,1.024c-6.272,3.584-18.176,9.024-36.288,10.816
		c-18.624,1.92-34.048-1.28-40.768-3.584l-8.192,5.888c4.288,2.688,26.24,8.576,49.792,6.144
		c23.488-2.304,41.984-13.376,45.696-16.896L192.868,230.962z"/>
</g>
<g>
	<path style="fill:#555656;" d="M259.044,299.314L259.044,299.314c-0.512-0.192-1.024-0.384-1.472-0.512
		C258.02,298.866,258.532,299.058,259.044,299.314z"/>
	<path style="fill:#555656;" d="M247.268,289.394c-1.088-0.896-2.432-1.472-4.032-1.792L97.444,261.81l-23.68-2.304l-37.568,11.712
		l75.2,5.952l153.408,25.984L247.268,289.394z"/>
	<path style="fill:#555656;" d="M346.34,372.018l13.504,11.392L346.34,372.018z"/>
</g>
<path style="fill:#717272;" d="M467.364,310.706h-14.976c-1.088,0-2.176-0.576-2.816-1.408c-0.704-0.896-0.896-1.92-0.512-3.008
	l16.192-57.024l-12.48-6.272l-58.112,41.472c-0.384,0.32-0.896,0.512-1.472,0.576l-49.728,8.32l0.128,9.92l58.304,9.024
	c0.384,0.128,0.768,0.192,1.408,0.512l99.712,59.776L467.364,310.706z"/>
<g>
	<polygon style="fill:#555656;" points="353.316,307.186 368.036,366.514 338.148,373.938 357.348,390.834 392.996,382.898 
		373.988,309.938 	"/>
	<path style="fill:#555656;" d="M360.42,207.218l7.808-1.28L360.42,207.218z"/>
	<polygon style="fill:#555656;" points="375.268,120.178 359.268,213.938 373.476,212.146 387.556,122.098 	"/>
</g>
<path d="M510.948,362.674l-34.112-59.712c-1.472-2.624-4.416-4.288-7.424-4.288h-5.696l13.888-48.896
	c1.088-3.904-0.704-8.128-4.416-9.92l-7.68-3.776l27.584-34.496c1.792-2.112,2.304-4.992,1.472-7.68
	c-0.768-2.688-2.816-4.928-5.504-5.696l-20.672-6.912l9.024-24.704c1.472-4.096-0.32-8.576-4.224-10.496l-17.024-8.512
	c-3.2-1.6-6.912-1.088-9.472,1.216l-58.432,51.904l12.608-69.504c0.512-2.496-0.192-4.992-1.792-6.976
	c-1.6-1.984-4.032-3.072-6.592-3.072h-25.6c-1.984,0-4.032,0.832-5.504,1.984L243.62,213.874l-37.696,7.488
	c-3.392-2.624-8.384-4.928-15.616-6.528c-10.816-2.432-24.704-3.008-39.296-1.472c-14.528,1.472-28.096,4.672-38.08,9.28
	c-13.12,5.824-17.472,12.48-18.496,17.984L6.308,264.882c-3.968,1.024-6.656,4.928-6.272,9.024c0.384,4.096,3.712,7.424,7.872,7.808
	l101.632,8.384l142.784,25.28l99.136,83.328c0.896,0.704,1.792,1.28,2.816,1.6l1.472,0.512c0.896,0.32,1.792,0.384,2.688,0.384
	c0.704,0,1.408-0.128,1.984-0.32l34.112-8.512c4.608-1.088,7.296-5.824,6.208-10.304l-14.784-60.096l12.224,1.92l84.032,50.304
	c1.28,0.768,2.688,1.216,4.224,1.216l17.088,0.32c0.128,0,0.128,0,0.192,0c2.176,0,4.416-1.024,6.016-2.624
	c1.6-1.6,2.624-3.904,2.624-6.208C512.036,365.49,511.652,363.89,510.948,362.674z M472.164,200.498l-19.648,24.576l10.112-27.776
	L472.164,200.498z M370.148,127.986h12.224l-14.208,77.888l-44.48,7.424h-53.12L370.148,127.986z M152.868,230.514
	c23.488-2.432,38.208,1.472,42.496,4.288c-3.712,3.52-17.28,10.304-40.832,12.608c-23.488,2.432-38.208-1.472-42.496-4.288
	C115.62,239.602,129.316,232.818,152.868,230.514z M359.908,383.41l-98.368-82.816c-1.088-0.896-2.496-1.472-4.032-1.792
	L111.716,273.01l-54.208-4.48l44.032-11.904c3.52,2.496,8.384,4.672,15.424,6.272c6.784,1.472,14.912,2.304,23.616,2.304
	c5.12,0,10.304-0.32,15.68-0.896c14.528-1.472,28.096-4.672,38.08-9.28c12.672-5.696,17.28-12.096,18.432-17.6l35.584-7.104h75.904
	c0.512,0,0.896,0,1.408-0.128l51.2-8.512c0.128-0.128,0.192-0.128,0.32-0.128c1.472-0.32,3.008-1.024,4.096-1.984l72.384-64.32
	l5.12,2.624l-31.616,86.72c-0.32,0.704-0.32,1.408-0.32,1.984l-37.632,26.88l-100.416,16.704c-4.224,0.704-7.232,4.416-7.232,8.512
	c0,4.096,3.072,7.68,7.296,8.384l78.72,12.096l14.72,58.496L359.908,383.41z M405.412,308.402c-0.896-0.512-1.984-0.896-3.072-1.088
	l-58.304-9.024l49.792-8.32c1.28-0.32,2.624-0.768,3.584-1.472l55.488-39.68l6.08,3.072l-15.104,52.992
	c-0.832,2.624-0.32,5.312,1.408,7.424c1.6,2.112,4.224,3.392,6.784,3.392h12.096l24.384,42.688L405.412,308.402z"/>
<g>
</g>
<g>
</g>
<g>
</g>
<g>
</g>
<g>
</g>
<g>
</g>
<g>
</g>
<g>
</g>
<g>
</g>
<g>
</g>
<g>
</g>
<g>
</g>
<g>
</g>
<g>
</g>
<g>
</g>
</svg>
