<svg xmlns="http://www.w3.org/2000/svg" xmlns:xlink="http://www.w3.org/1999/xlink" width="1080" zoomAndPan="magnify" viewBox="0 0 810 809.999993" height="1080" preserveAspectRatio="xMidYMid meet" version="1.0"><path fill="rgb(72.158813%, 81.17981%, 85.099792%)" d="M 86.449219 726.597656 C 117.53125 771.855469 248.378906 805.828125 405.109375 805.828125 C 561.84375 805.828125 692.6875 771.855469 723.769531 726.597656 L 86.449219 726.597656 " fill-opacity="1" fill-rule="nonzero"/><path fill="rgb(81.959534%, 88.238525%, 90.589905%)" d="M 20.855469 682.785156 C 20.855469 733.621094 192.894531 774.828125 405.109375 774.828125 C 617.328125 774.828125 789.363281 733.621094 789.363281 682.785156 C 789.363281 631.96875 617.328125 590.78125 405.109375 590.78125 C 192.894531 590.78125 20.855469 631.96875 20.855469 682.785156 " fill-opacity="1" fill-rule="nonzero"/><path fill="rgb(72.158813%, 81.17981%, 85.099792%)" d="M 110.925781 670.355469 C 110.925781 709.644531 243.914062 741.484375 408.007812 741.484375 C 572.070312 741.484375 705.070312 709.644531 705.070312 670.355469 C 705.070312 631.042969 572.070312 599.203125 408.007812 599.203125 C 243.925781 599.203125 110.925781 631.042969 110.925781 670.355469 " fill-opacity="1" fill-rule="nonzero"/><path fill="rgb(59.21936%, 71.759033%, 77.249146%)" d="M 405.648438 774.828125 L 405.691406 774.828125 L 405.648438 774.828125 M 405.929688 774.828125 L 405.972656 774.828125 L 405.929688 774.828125 M 406.210938 774.828125 L 406.253906 774.828125 L 406.210938 774.828125 M 406.488281 774.828125 L 406.511719 774.828125 L 406.488281 774.828125 M 406.75 774.828125 L 406.8125 774.828125 L 406.75 774.828125 M 407.027344 774.828125 L 407.09375 774.828125 L 407.027344 774.828125 M 407.308594 774.828125 L 407.375 774.828125 L 407.308594 774.828125 M 407.609375 774.828125 L 407.632812 774.828125 L 407.609375 774.828125 M 407.847656 774.828125 L 407.890625 774.828125 L 407.847656 774.828125 M 408.128906 774.828125 L 408.191406 774.828125 L 408.128906 774.828125 M 408.410156 774.828125 L 408.472656 774.828125 L 408.410156 774.828125 M 408.710938 774.828125 L 408.753906 774.828125 L 408.710938 774.828125 M 408.96875 774.808594 L 409.035156 774.808594 L 408.96875 774.808594 M 409.226562 774.808594 L 409.292969 774.808594 L 409.226562 774.808594 M 409.507812 774.808594 L 409.59375 774.808594 L 409.507812 774.808594 M 409.808594 774.808594 L 409.851562 774.808594 L 409.808594 774.808594 M 410.089844 774.808594 L 410.113281 774.808594 L 410.089844 774.808594 M 410.347656 774.808594 L 410.390625 774.808594 L 410.347656 774.808594 M 410.605469 774.808594 L 410.671875 774.808594 L 410.605469 774.808594 M 410.910156 774.808594 L 410.953125 774.808594 L 410.910156 774.808594 M 411.167969 774.808594 L 411.253906 774.808594 L 411.167969 774.808594 M 411.46875 774.808594 L 411.511719 774.808594 L 411.46875 774.808594 M 411.707031 774.808594 L 411.8125 774.808594 L 411.707031 774.808594 M 412.007812 774.808594 L 412.050781 774.808594 L 412.007812 774.808594 M 412.289062 774.808594 L 412.332031 774.808594 L 412.289062 774.808594 M 412.828125 774.808594 L 412.890625 774.808594 L 412.828125 774.808594 M 413.109375 774.808594 L 413.152344 774.808594 L 413.109375 774.808594 M 413.367188 774.808594 L 413.453125 774.808594 L 413.367188 774.808594 M 413.667969 774.808594 L 413.734375 774.808594 L 413.667969 774.808594 M 413.925781 774.808594 L 414.035156 774.808594 L 413.925781 774.808594 M 414.207031 774.808594 L 414.25 774.808594 L 414.207031 774.808594 M 414.488281 774.808594 L 414.550781 774.808594 L 414.488281 774.808594 M 414.789062 774.785156 L 414.832031 774.785156 L 414.789062 774.785156 M 415.070312 774.785156 L 415.089844 774.785156 L 415.070312 774.785156 M 415.609375 774.785156 L 415.628906 774.785156 L 415.609375 774.785156 M 415.867188 774.785156 L 415.910156 774.785156 L 415.867188 774.785156 M 416.125 774.785156 L 416.210938 774.785156 L 416.125 774.785156 M 416.425781 774.785156 L 416.492188 774.785156 L 416.425781 774.785156 M 416.6875 774.785156 L 416.773438 774.785156 L 416.6875 774.785156 M 416.988281 774.785156 L 417.007812 774.785156 L 416.988281 774.785156 M 417.246094 774.785156 C 417.269531 774.765625 417.289062 774.765625 417.3125 774.765625 C 417.289062 774.765625 417.269531 774.765625 417.246094 774.785156 M 417.546875 774.765625 L 417.570312 774.765625 L 417.546875 774.765625 M 417.828125 774.765625 L 417.851562 774.765625 L 417.828125 774.765625 M 418.066406 774.765625 L 418.109375 774.765625 L 418.066406 774.765625 M 418.324219 774.765625 L 418.410156 774.765625 L 418.324219 774.765625 M 418.625 774.765625 L 418.667969 774.765625 L 418.625 774.765625 M 418.90625 774.765625 L 418.972656 774.765625 L 418.90625 774.765625 M 419.1875 774.765625 L 419.230469 774.765625 L 419.1875 774.765625 M 419.445312 774.765625 L 419.488281 774.765625 L 419.445312 774.765625 M 419.726562 774.765625 L 419.789062 774.765625 L 419.726562 774.765625 M 420.027344 774.765625 L 420.046875 774.765625 L 420.027344 774.765625 M 420.285156 774.765625 C 420.308594 774.765625 420.308594 774.765625 420.328125 774.742188 C 420.328125 774.765625 420.308594 774.765625 420.285156 774.765625 M 420.542969 774.742188 L 420.609375 774.742188 L 420.542969 774.742188 M 420.824219 774.742188 L 420.867188 774.742188 L 420.824219 774.742188 M 421.082031 774.742188 L 421.148438 774.742188 L 421.082031 774.742188 M 421.386719 774.742188 L 421.429688 774.742188 L 421.386719 774.742188 M 421.664062 774.742188 L 421.707031 774.742188 L 421.664062 774.742188 M 421.925781 774.742188 L 421.96875 774.742188 L 421.925781 774.742188 M 422.183594 774.722656 L 422.246094 774.722656 L 422.183594 774.722656 M 422.484375 774.722656 L 422.527344 774.722656 L 422.484375 774.722656 M 422.742188 774.722656 L 422.851562 774.722656 L 422.742188 774.722656 M 423.023438 774.722656 L 423.089844 774.722656 L 423.023438 774.722656 M 423.261719 774.722656 L 423.347656 774.722656 L 423.261719 774.722656 M 423.5625 774.722656 L 423.625 774.722656 L 423.5625 774.722656 M 423.84375 774.722656 L 423.90625 774.722656 L 423.84375 774.722656 M 424.121094 774.722656 L 424.1875 774.722656 L 424.121094 774.722656 M 424.402344 774.699219 L 424.425781 774.699219 L 424.402344 774.699219 M 424.683594 774.699219 L 424.703125 774.699219 L 424.683594 774.699219 M 424.941406 774.699219 L 425.007812 774.699219 L 424.941406 774.699219 M 425.222656 774.699219 L 425.265625 774.699219 L 425.222656 774.699219 M 425.503906 774.699219 L 425.546875 774.699219 L 425.503906 774.699219 M 425.761719 774.679688 L 425.804688 774.679688 L 425.761719 774.679688 M 426.019531 774.679688 L 426.085938 774.679688 L 426.019531 774.679688 M 426.300781 774.679688 L 426.363281 774.679688 L 426.300781 774.679688 M 426.582031 774.679688 L 426.667969 774.679688 L 426.582031 774.679688 M 426.839844 774.679688 L 426.945312 774.679688 L 426.839844 774.679688 M 427.074219 774.679688 L 427.226562 774.679688 L 427.074219 774.679688 M 427.378906 774.679688 L 427.484375 774.679688 L 427.378906 774.679688 M 427.65625 774.65625 L 427.789062 774.65625 L 427.65625 774.65625 M 427.894531 774.65625 L 428.066406 774.65625 L 427.894531 774.65625 M 428.152344 774.65625 L 428.347656 774.65625 L 428.152344 774.65625 M 428.457031 774.65625 L 428.5625 774.65625 L 428.457031 774.65625 M 428.734375 774.65625 C 428.777344 774.65625 428.820312 774.636719 428.863281 774.636719 C 428.800781 774.65625 428.800781 774.65625 428.734375 774.65625 M 429.039062 774.636719 L 429.125 774.636719 L 429.039062 774.636719 M 429.273438 774.636719 L 429.425781 774.636719 L 429.273438 774.636719 M 429.554688 774.636719 L 429.640625 774.636719 L 429.554688 774.636719 M 429.855469 774.636719 L 429.921875 774.636719 L 429.855469 774.636719 M 430.117188 774.636719 L 430.222656 774.636719 L 430.117188 774.636719 M 430.375 774.636719 C 430.417969 774.613281 430.460938 774.613281 430.523438 774.613281 C 430.480469 774.613281 430.417969 774.613281 430.375 774.636719 M 430.632812 774.613281 L 430.804688 774.613281 L 430.632812 774.613281 M 430.890625 774.613281 L 431.0625 774.613281 L 430.890625 774.613281 M 431.191406 774.613281 L 431.324219 774.613281 L 431.191406 774.613281 M 431.386719 774.613281 L 431.601562 774.613281 L 431.386719 774.613281 M 431.6875 774.613281 L 431.882812 774.613281 L 431.6875 774.613281 M 431.96875 774.613281 C 432.035156 774.59375 432.097656 774.59375 432.164062 774.59375 C 432.097656 774.59375 432.054688 774.59375 431.96875 774.613281 M 432.269531 774.59375 L 432.464844 774.59375 L 432.269531 774.59375 M 432.550781 774.59375 L 432.679688 774.59375 L 432.550781 774.59375 M 432.851562 774.59375 L 432.960938 774.59375 L 432.851562 774.59375 M 433.070312 774.570312 L 433.242188 774.570312 L 433.070312 774.570312 M 433.371094 774.570312 L 433.5 774.570312 L 433.371094 774.570312 M 433.628906 774.570312 L 433.800781 774.570312 L 433.628906 774.570312 M 433.929688 774.570312 L 434.039062 774.570312 L 433.929688 774.570312 M 434.1875 774.570312 L 434.320312 774.570312 L 434.1875 774.570312 M 434.492188 774.550781 L 434.554688 774.550781 L 434.492188 774.550781 M 434.75 774.550781 L 434.835938 774.550781 L 434.75 774.550781 M 435.03125 774.550781 L 435.117188 774.550781 L 435.03125 774.550781 M 435.308594 774.527344 L 435.417969 774.527344 L 435.308594 774.527344 M 435.546875 774.527344 L 435.699219 774.527344 L 435.546875 774.527344 M 435.804688 774.527344 L 435.976562 774.527344 L 435.804688 774.527344 M 436.085938 774.527344 L 436.195312 774.527344 L 436.085938 774.527344 M 436.386719 774.527344 L 436.472656 774.527344 L 436.386719 774.527344 M 436.667969 774.507812 L 436.777344 774.507812 L 436.667969 774.507812 M 436.882812 774.507812 L 437.035156 774.507812 L 436.882812 774.507812 M 437.1875 774.507812 L 437.316406 774.507812 L 437.1875 774.507812 M 437.445312 774.507812 C 437.488281 774.507812 437.550781 774.484375 437.59375 774.484375 C 437.550781 774.484375 437.488281 774.507812 437.445312 774.507812 M 437.722656 774.484375 L 437.875 774.484375 L 437.722656 774.484375 M 437.917969 774.484375 L 438.15625 774.484375 L 437.917969 774.484375 M 438.21875 774.484375 L 438.4375 774.484375 L 438.21875 774.484375 M 438.5 774.484375 L 438.738281 774.484375 L 438.5 774.484375 M 438.800781 774.484375 C 438.84375 774.464844 438.886719 774.464844 438.929688 774.464844 C 438.886719 774.464844 438.84375 774.464844 438.800781 774.484375 M 438.976562 774.464844 L 439.234375 774.464844 L 438.976562 774.464844 M 439.277344 774.464844 L 439.492188 774.464844 L 439.277344 774.464844 M 439.601562 774.441406 L 439.816406 774.441406 L 439.601562 774.441406 M 439.878906 774.441406 L 440.589844 774.441406 L 439.878906 774.441406 M 440.675781 774.441406 C 440.742188 774.421875 440.808594 774.421875 440.871094 774.421875 C 440.808594 774.421875 440.742188 774.421875 440.675781 774.441406 M 440.957031 774.421875 L 441.195312 774.421875 L 440.957031 774.421875 M 441.238281 774.421875 L 441.648438 774.421875 L 441.238281 774.421875 M 441.753906 774.421875 C 441.820312 774.421875 441.863281 774.421875 441.929688 774.398438 C 441.886719 774.398438 441.796875 774.421875 441.753906 774.421875 M 442.058594 774.398438 L 442.1875 774.398438 L 442.058594 774.398438 M 442.316406 774.398438 L 442.511719 774.398438 L 442.316406 774.398438 M 442.597656 774.398438 C 442.640625 774.378906 442.683594 774.378906 442.726562 774.378906 C 442.683594 774.378906 442.660156 774.378906 442.597656 774.398438 M 442.875 774.378906 L 443.003906 774.378906 L 442.875 774.378906 M 443.15625 774.378906 L 443.285156 774.378906 L 443.15625 774.378906 M 443.394531 774.378906 L 443.542969 774.378906 L 443.394531 774.378906 M 443.695312 774.355469 L 443.78125 774.355469 L 443.695312 774.355469 M 443.953125 774.355469 L 444.082031 774.355469 L 443.953125 774.355469 M 444.257812 774.355469 L 444.34375 774.355469 L 444.257812 774.355469 M 444.492188 774.332031 L 444.644531 774.332031 L 444.492188 774.332031 M 444.75 774.332031 L 444.902344 774.332031 L 444.75 774.332031 M 445.03125 774.332031 L 445.160156 774.332031 L 445.03125 774.332031 M 445.3125 774.332031 C 445.355469 774.332031 445.398438 774.3125 445.421875 774.3125 C 445.398438 774.332031 445.355469 774.332031 445.3125 774.332031 M 445.613281 774.3125 L 445.699219 774.3125 L 445.613281 774.3125 M 445.851562 774.3125 L 445.980469 774.3125 L 445.851562 774.3125 M 446.109375 774.289062 L 446.238281 774.289062 L 446.109375 774.289062 M 446.390625 774.289062 L 446.496094 774.289062 L 446.390625 774.289062 M 446.671875 774.289062 L 446.777344 774.289062 L 446.671875 774.289062 M 446.972656 774.289062 L 447.058594 774.289062 L 446.972656 774.289062 M 447.1875 774.269531 L 447.316406 774.269531 L 447.1875 774.269531 M 447.46875 774.269531 L 447.574219 774.269531 L 447.46875 774.269531 M 447.726562 774.269531 L 447.855469 774.269531 L 447.726562 774.269531 M 448.050781 774.246094 L 448.113281 774.246094 L 448.050781 774.246094 M 448.265625 774.246094 L 448.4375 774.246094 L 448.265625 774.246094 M 448.503906 774.246094 C 448.589844 774.246094 448.675781 774.226562 448.738281 774.226562 C 448.675781 774.226562 448.589844 774.246094 448.503906 774.246094 M 448.78125 774.226562 L 449 774.226562 L 448.78125 774.226562 M 449.105469 774.226562 L 449.191406 774.226562 L 449.105469 774.226562 M 449.320312 774.226562 L 449.515625 774.226562 L 449.320312 774.226562 M 449.582031 774.203125 L 449.796875 774.203125 L 449.582031 774.203125 M 449.859375 774.203125 L 450.074219 774.203125 L 449.859375 774.203125 M 450.164062 774.203125 C 450.183594 774.203125 450.25 774.183594 450.269531 774.183594 C 450.25 774.183594 450.207031 774.183594 450.164062 774.203125 M 450.441406 774.183594 L 450.570312 774.183594 L 450.441406 774.183594 M 450.636719 774.183594 L 450.894531 774.183594 L 450.636719 774.183594 M 450.894531 774.183594 C 450.980469 774.183594 451.089844 774.160156 451.175781 774.160156 C 451.089844 774.160156 451.003906 774.183594 450.894531 774.183594 M 451.195312 774.160156 L 451.433594 774.160156 L 451.195312 774.160156 M 451.5 774.160156 L 451.628906 774.160156 L 451.5 774.160156 M 451.757812 774.140625 L 451.929688 774.140625 L 451.757812 774.140625 M 451.996094 774.140625 L 452.1875 774.140625 L 451.996094 774.140625 M 452.296875 774.140625 L 452.492188 774.140625 L 452.296875 774.140625 M 452.554688 774.117188 L 452.707031 774.117188 L 452.554688 774.117188 M 452.855469 774.117188 L 452.964844 774.117188 L 452.855469 774.117188 M 453.074219 774.117188 C 453.136719 774.097656 453.203125 774.097656 453.265625 774.097656 C 453.203125 774.097656 453.136719 774.097656 453.074219 774.117188 M 453.375 774.097656 L 453.503906 774.097656 L 453.375 774.097656 M 453.65625 774.097656 L 453.742188 774.097656 L 453.65625 774.097656 M 453.933594 774.074219 L 454.019531 774.074219 L 453.933594 774.074219 M 454.214844 774.074219 L 454.324219 774.074219 L 454.214844 774.074219 M 454.429688 774.074219 L 454.582031 774.074219 L 454.429688 774.074219 M 454.730469 774.074219 C 454.773438 774.054688 454.796875 774.054688 454.839844 774.054688 C 454.796875 774.054688 454.773438 774.054688 454.730469 774.074219 M 455.011719 774.054688 L 455.097656 774.054688 L 455.011719 774.054688 M 455.269531 774.054688 C 455.3125 774.03125 455.355469 774.03125 455.398438 774.03125 C 455.355469 774.03125 455.3125 774.03125 455.269531 774.054688 M 455.488281 774.03125 L 455.660156 774.03125 L 455.488281 774.03125 M 455.789062 774.03125 L 455.9375 774.03125 L 455.789062 774.03125 M 456.046875 774.03125 C 456.113281 774.011719 456.175781 774.011719 456.242188 774.011719 C 456.199219 774.011719 456.113281 774.03125 456.046875 774.03125 M 456.328125 774.011719 L 456.433594 774.011719 L 456.328125 774.011719 M 456.628906 773.988281 L 456.714844 773.988281 L 456.628906 773.988281 M 456.867188 773.988281 L 456.996094 773.988281 L 456.867188 773.988281 M 457.125 773.988281 L 457.320312 773.988281 L 457.125 773.988281 M 457.382812 773.988281 C 457.449219 773.96875 457.535156 773.96875 457.597656 773.96875 C 457.511719 773.96875 457.449219 773.96875 457.382812 773.988281 M 457.664062 773.96875 L 457.792969 773.96875 L 457.664062 773.96875 M 457.902344 773.945312 L 458.074219 773.945312 L 457.902344 773.945312 M 458.203125 773.945312 L 458.332031 773.945312 L 458.203125 773.945312 M 458.460938 773.945312 L 458.589844 773.945312 L 458.460938 773.945312 M 458.761719 773.925781 L 458.828125 773.925781 L 458.761719 773.925781 M 459.023438 773.925781 L 459.109375 773.925781 L 459.023438 773.925781 M 459.300781 773.925781 L 459.386719 773.925781 L 459.300781 773.925781 M 459.539062 773.902344 L 459.667969 773.902344 L 459.539062 773.902344 M 459.820312 773.902344 C 459.839844 773.902344 459.863281 773.902344 459.90625 773.882812 C 459.863281 773.902344 459.839844 773.902344 459.820312 773.902344 M 460.097656 773.882812 L 460.164062 773.882812 L 460.097656 773.882812 M 460.378906 773.882812 L 460.445312 773.882812 L 460.378906 773.882812 M 460.660156 773.859375 L 460.703125 773.859375 L 460.660156 773.859375 M 460.917969 773.859375 L 460.941406 773.859375 L 460.917969 773.859375 M 461.175781 773.839844 L 461.21875 773.839844 L 461.175781 773.839844 M 461.4375 773.839844 L 461.5 773.839844 L 461.4375 773.839844 M 461.714844 773.839844 L 461.78125 773.839844 L 461.714844 773.839844 M 461.996094 773.816406 L 462.039062 773.816406 L 461.996094 773.816406 M 462.792969 773.792969 L 462.835938 773.792969 L 462.792969 773.792969 M 463.851562 773.75 L 463.894531 773.75 L 463.851562 773.75 M 464.90625 773.707031 L 464.949219 773.707031 L 464.90625 773.707031 M 465.1875 773.707031 L 465.207031 773.707031 L 465.1875 773.707031 M 465.445312 773.6875 L 465.488281 773.6875 L 465.445312 773.6875 M 465.703125 773.6875 L 465.769531 773.6875 L 465.703125 773.6875 M 465.984375 773.6875 C 465.984375 773.664062 465.984375 773.664062 466.007812 773.664062 C 465.984375 773.664062 465.984375 773.664062 465.984375 773.6875 M 466.242188 773.664062 L 466.265625 773.664062 L 466.242188 773.664062 M 466.523438 773.644531 L 466.542969 773.644531 L 466.523438 773.644531 M 466.78125 773.644531 L 466.804688 773.644531 L 466.78125 773.644531 M 470.230469 773.515625 L 470.253906 773.492188 L 470.230469 773.515625 M 471.546875 773.449219 L 471.566406 773.449219 L 471.546875 773.449219 " fill-opacity="1" fill-rule="nonzero"/><path fill="rgb(67.059326%, 77.648926%, 81.959534%)" d="M 405.109375 774.828125 C 192.894531 774.828125 20.855469 733.621094 20.855469 682.785156 L 20.855469 682.480469 C 21.03125 670.203125 31.273438 658.484375 49.644531 647.800781 C 45.839844 652.992188 43.84375 658.335938 43.84375 663.804688 C 43.84375 714.644531 215.871094 755.832031 428.121094 755.832031 C 588.582031 755.832031 726.0625 732.265625 783.574219 698.789062 C 755.726562 736.832031 630.398438 766.816406 471.574219 773.453125 L 471.296875 773.453125 C 470.949219 773.472656 470.605469 773.496094 470.261719 773.496094 L 470.238281 773.515625 L 469.980469 773.515625 L 466.8125 773.644531 L 466.53125 773.644531 C 466.445312 773.644531 466.382812 773.667969 466.273438 773.667969 L 466.015625 773.667969 C 465.992188 773.667969 465.992188 773.667969 465.992188 773.6875 L 465.453125 773.6875 C 465.367188 773.6875 465.304688 773.710938 465.21875 773.710938 L 464.914062 773.710938 C 464.65625 773.730469 464.417969 773.730469 464.140625 773.753906 L 463.859375 773.753906 C 463.535156 773.753906 463.167969 773.773438 462.847656 773.796875 L 462.542969 773.796875 C 462.371094 773.796875 462.21875 773.816406 462.046875 773.816406 L 462.003906 773.816406 C 461.917969 773.816406 461.875 773.816406 461.789062 773.839844 L 461.1875 773.839844 C 461.121094 773.859375 461.035156 773.859375 460.949219 773.859375 L 460.667969 773.859375 C 460.605469 773.882812 460.519531 773.882812 460.453125 773.882812 L 459.914062 773.882812 C 459.871094 773.902344 459.847656 773.902344 459.828125 773.902344 L 459.546875 773.902344 C 459.503906 773.902344 459.441406 773.902344 459.398438 773.925781 L 458.773438 773.925781 C 458.707031 773.925781 458.664062 773.945312 458.597656 773.945312 L 457.910156 773.945312 C 457.886719 773.96875 457.84375 773.96875 457.800781 773.96875 L 457.609375 773.96875 C 457.542969 773.96875 457.457031 773.96875 457.390625 773.988281 L 456.636719 773.988281 C 456.550781 774.011719 456.53125 774.011719 456.445312 774.011719 L 456.25 774.011719 C 456.183594 774.011719 456.121094 774.011719 456.054688 774.03125 L 455.410156 774.03125 C 455.367188 774.03125 455.324219 774.03125 455.28125 774.054688 L 454.847656 774.054688 C 454.804688 774.054688 454.785156 774.054688 454.742188 774.078125 L 453.941406 774.078125 C 453.878906 774.097656 453.835938 774.097656 453.75 774.097656 L 453.273438 774.097656 C 453.210938 774.097656 453.144531 774.097656 453.082031 774.121094 L 452.5625 774.121094 C 452.542969 774.121094 452.519531 774.121094 452.5 774.140625 L 451.765625 774.140625 C 451.722656 774.140625 451.679688 774.140625 451.636719 774.164062 L 451.183594 774.164062 C 451.097656 774.164062 450.988281 774.183594 450.902344 774.183594 L 450.277344 774.183594 C 450.257812 774.183594 450.191406 774.207031 450.171875 774.207031 L 449.589844 774.207031 C 449.566406 774.226562 449.546875 774.226562 449.523438 774.226562 L 448.75 774.226562 C 448.683594 774.226562 448.597656 774.25 448.511719 774.25 L 448.058594 774.25 C 447.992188 774.25 447.929688 774.269531 447.863281 774.269531 L 447.195312 774.269531 C 447.152344 774.269531 447.109375 774.269531 447.066406 774.292969 L 446.117188 774.292969 C 446.074219 774.3125 446.054688 774.3125 445.988281 774.3125 L 445.429688 774.3125 C 445.40625 774.3125 445.363281 774.335938 445.320312 774.335938 L 444.5 774.335938 C 444.4375 774.335938 444.394531 774.335938 444.351562 774.355469 L 443.703125 774.355469 C 443.660156 774.355469 443.617188 774.378906 443.554688 774.378906 L 442.734375 774.378906 C 442.691406 774.378906 442.648438 774.378906 442.605469 774.398438 L 441.9375 774.398438 C 441.871094 774.421875 441.828125 774.421875 441.765625 774.421875 L 440.878906 774.421875 C 440.816406 774.421875 440.75 774.421875 440.6875 774.441406 L 439.609375 774.441406 C 439.585938 774.441406 439.542969 774.441406 439.5 774.464844 L 438.941406 774.464844 C 438.898438 774.464844 438.855469 774.464844 438.8125 774.484375 L 437.605469 774.484375 C 437.5625 774.484375 437.496094 774.507812 437.453125 774.507812 L 436.675781 774.507812 C 436.613281 774.527344 436.546875 774.527344 436.484375 774.527344 L 435.320312 774.527344 C 435.234375 774.550781 435.1875 774.550781 435.125 774.550781 L 434.5 774.550781 C 434.433594 774.570312 434.390625 774.570312 434.328125 774.570312 L 433.078125 774.570312 C 433.035156 774.570312 433.011719 774.59375 432.96875 774.59375 L 432.171875 774.59375 C 432.105469 774.59375 432.042969 774.59375 431.976562 774.617188 L 430.535156 774.617188 C 430.46875 774.617188 430.425781 774.617188 430.382812 774.636719 L 428.875 774.636719 C 428.832031 774.636719 428.789062 774.660156 428.746094 774.660156 L 427.667969 774.660156 C 427.625 774.660156 427.535156 774.679688 427.492188 774.679688 L 425.769531 774.679688 C 425.683594 774.679688 425.617188 774.703125 425.554688 774.703125 L 424.410156 774.703125 C 424.347656 774.703125 424.261719 774.703125 424.195312 774.722656 L 422.191406 774.722656 C 422.125 774.722656 422.039062 774.746094 421.976562 774.746094 L 420.335938 774.746094 C 420.316406 774.765625 420.316406 774.765625 420.292969 774.765625 L 417.320312 774.765625 C 417.296875 774.765625 417.277344 774.765625 417.253906 774.789062 L 414.796875 774.789062 C 414.710938 774.789062 414.625 774.808594 414.558594 774.808594 L 408.976562 774.808594 C 408.914062 774.808594 408.828125 774.808594 408.761719 774.832031 L 405.117188 774.832031 " fill-opacity="1" fill-rule="nonzero"/><path fill="rgb(50.588989%, 17.248535%, 9.408569%)" d="M 494.460938 571.371094 C 456.609375 556.464844 405.21875 569.195312 365.855469 574.925781 C 329.75 580.183594 215.441406 635.695312 215.441406 635.695312 C 215.441406 635.695312 195.542969 691.980469 231.15625 717.507812 C 264.222656 741.246094 297.351562 743.335938 336.152344 745.621094 C 372.28125 747.773438 416.921875 768.214844 444.730469 731.1875 C 457.511719 714.167969 449.730469 699.910156 472.0625 691.121094 C 487.476562 685.046875 511.359375 684.785156 529.035156 681.210938 C 562.382812 674.46875 596.957031 666.800781 630.152344 643.601562 C 650.394531 629.402344 646.277344 598.125 646.277344 598.125 L 494.460938 571.371094 " fill-opacity="1" fill-rule="nonzero"/><path fill="rgb(65.489197%, 26.269531%, 12.159729%)" d="M 499.160156 528.160156 C 461.328125 513.273438 409.917969 526.007812 370.554688 531.734375 C 334.449219 536.992188 279.761719 546.707031 252.882812 572.816406 C 227.1875 597.761719 195.351562 645.429688 230.960938 670.980469 C 264.027344 694.71875 302.050781 700.125 340.875 702.429688 C 376.980469 704.5625 421.621094 725.027344 449.449219 687.976562 C 462.234375 670.980469 454.429688 656.71875 476.761719 647.929688 C 492.175781 641.855469 516.078125 641.597656 533.734375 638.019531 C 567.101562 631.277344 607.972656 627.273438 641.191406 604.050781 C 661.453125 589.898438 628.601562 557.78125 571.757812 535.332031 L 499.160156 528.160156 " fill-opacity="1" fill-rule="nonzero"/><path fill="rgb(68.629456%, 30.589294%, 11.369324%)" d="M 323.628906 551.726562 C 315.332031 551.726562 307.894531 550.238281 303.023438 546.125 C 313.347656 542.851562 324.058594 540.179688 334.492188 537.984375 C 328.910156 541.839844 325.332031 546.425781 325.785156 551.683594 C 325.050781 551.703125 324.339844 551.726562 323.628906 551.726562 M 603.207031 550.628906 C 585.835938 550.628906 561.433594 539.382812 550.09375 538.261719 C 542.832031 537.550781 535.480469 536.796875 528.109375 536.066406 C 533.5625 535.011719 538.777344 533.847656 543.84375 532.574219 L 571.757812 535.332031 C 583.785156 540.074219 594.628906 545.265625 604.199219 550.605469 C 603.878906 550.605469 603.53125 550.628906 603.207031 550.628906 " fill-opacity="1" fill-rule="nonzero"/><path fill="rgb(68.629456%, 30.589294%, 11.369324%)" d="M 348.136719 627.660156 C 343.09375 627.660156 337.878906 626.691406 332.789062 625.097656 C 333.371094 624.320312 333.953125 623.503906 334.535156 622.703125 C 335.871094 620.851562 337.210938 618.933594 338.632812 617.039062 C 340.078125 615.164062 341.519531 613.269531 342.941406 611.332031 C 345.765625 607.410156 348.894531 603.664062 351.890625 599.785156 C 354.949219 595.972656 357.96875 592.09375 361.09375 588.433594 C 363.207031 585.957031 365.230469 583.457031 367.257812 581.042969 C 376.289062 584.015625 385.882812 586.40625 395.300781 588.238281 C 390.753906 592.804688 387.21875 596.964844 385.753906 598.816406 C 380.644531 605.386719 375.707031 612.0625 370.191406 618.308594 C 364.261719 625.054688 356.457031 627.660156 348.136719 627.660156 M 327.035156 623.027344 C 319.230469 619.839844 312.074219 615.402344 306.773438 611.03125 C 291.339844 598.296875 313.542969 567.6875 328.542969 558.535156 C 330.375 561.097656 333.15625 563.8125 337.082031 566.613281 C 343.570312 571.308594 351.714844 575.335938 360.707031 578.71875 C 359.109375 580.460938 357.515625 582.230469 355.941406 584.039062 C 352.730469 587.742188 349.582031 591.597656 346.414062 595.457031 C 343.4375 599.441406 340.3125 603.316406 337.511719 607.347656 C 334.621094 611.289062 331.949219 615.316406 329.449219 619.257812 C 328.609375 620.507812 327.8125 621.757812 327.035156 623.027344 M 441.042969 604.351562 C 436.429688 604.351562 434.816406 599.226562 433.953125 593 C 434.082031 592.828125 434.1875 592.675781 434.320312 592.527344 L 441.691406 592.761719 C 446.261719 593.882812 451.089844 594.527344 455.9375 594.527344 C 456.414062 594.527344 456.886719 594.507812 457.382812 594.507812 C 456.003906 595.476562 454.601562 596.597656 453.117188 597.867188 C 447.660156 602.5 443.804688 604.351562 441.042969 604.351562 M 492.132812 599.785156 C 489.113281 599.785156 485.945312 598.578125 482.582031 595.476562 C 479.070312 592.246094 475.707031 589.511719 471.007812 589.511719 C 470.121094 589.511719 469.21875 589.597656 468.226562 589.8125 C 464.605469 590.566406 461.824219 591.707031 459.195312 593.324219 L 441.691406 592.761719 C 439.601562 592.246094 437.550781 591.621094 435.570312 590.910156 C 436.066406 590.265625 436.582031 589.617188 437.078125 588.992188 C 440.050781 585.246094 442.8125 581.433594 445.59375 577.792969 C 448.351562 574.171875 450.9375 570.597656 453.394531 567.214844 C 455.875 563.855469 458.136719 560.601562 460.25 557.605469 C 464.324219 551.8125 467.644531 546.878906 469.949219 543.304688 C 478.722656 542.226562 487.605469 541.386719 496.378906 540.480469 C 499.828125 540.871094 503.277344 541.257812 506.726562 541.601562 C 529.488281 543.972656 552.703125 541.753906 574.839844 548.839844 C 588.507812 553.191406 581.503906 581.28125 564.472656 590.242188 C 562.167969 591.449219 559.945312 591.945312 557.789062 591.945312 C 550.71875 591.945312 544.253906 586.773438 537.441406 584.878906 C 535.632812 584.382812 533.691406 584.144531 531.6875 584.144531 C 525.371094 584.144531 518.496094 586.363281 513.472656 588.90625 C 506.230469 592.589844 499.566406 599.785156 492.132812 599.785156 M 432.960938 583.347656 C 432.917969 582.960938 432.875 582.574219 432.808594 582.207031 C 431.796875 573.269531 428.21875 569.929688 423.476562 569.929688 C 420.480469 569.929688 417.03125 571.242188 413.453125 573.332031 C 410.476562 565.511719 414.722656 557.175781 431.214844 551.445312 C 442.53125 547.527344 454.949219 545.265625 467.6875 543.605469 C 464.863281 546.578125 461.242188 550.476562 457.101562 555.109375 C 454.667969 557.84375 452.015625 560.796875 449.300781 563.960938 C 446.5625 567.128906 443.652344 570.46875 440.765625 573.976562 C 438.21875 577.039062 435.570312 580.117188 432.960938 583.347656 " fill-opacity="1" fill-rule="nonzero"/><path fill="rgb(90.979004%, 84.309387%, 81.959534%)" d="M 252.882812 572.816406 L 252.949219 572.75 L 252.882812 572.816406 M 252.96875 572.730469 L 253.035156 572.664062 L 252.96875 572.730469 M 253.035156 572.664062 L 253.097656 572.601562 L 253.035156 572.664062 M 253.121094 572.578125 L 253.183594 572.515625 L 253.121094 572.578125 M 253.207031 572.515625 C 253.226562 572.492188 253.226562 572.46875 253.25 572.46875 C 253.226562 572.46875 253.226562 572.492188 253.207031 572.515625 M 253.269531 572.425781 C 253.292969 572.425781 253.3125 572.382812 253.335938 572.382812 C 253.3125 572.382812 253.292969 572.425781 253.269531 572.425781 M 253.378906 572.339844 C 253.378906 572.339844 253.378906 572.320312 253.398438 572.320312 C 253.378906 572.320312 253.378906 572.339844 253.378906 572.339844 " fill-opacity="1" fill-rule="nonzero"/><path fill="rgb(46.669006%, 14.898682%, 8.628845%)" d="M 641.210938 604.027344 L 641.234375 604.027344 L 641.210938 604.027344 M 641.253906 604.007812 L 641.277344 603.984375 L 641.253906 604.007812 M 641.277344 603.984375 L 641.296875 603.964844 L 641.277344 603.984375 M 641.320312 603.964844 L 641.339844 603.941406 L 641.320312 603.964844 M 641.363281 603.921875 L 641.382812 603.921875 L 641.363281 603.921875 M 641.382812 603.898438 L 641.40625 603.898438 L 641.382812 603.898438 M 641.425781 603.878906 L 641.449219 603.855469 L 641.425781 603.878906 M 641.449219 603.855469 C 641.46875 603.855469 641.492188 603.835938 641.511719 603.8125 C 641.492188 603.835938 641.46875 603.855469 641.449219 603.855469 M 641.535156 603.792969 L 641.558594 603.792969 L 641.535156 603.792969 M 641.601562 603.75 L 641.621094 603.75 L 641.601562 603.75 M 641.6875 603.707031 L 641.6875 603.683594 L 641.6875 603.707031 M 641.707031 603.664062 L 641.730469 603.664062 L 641.707031 603.664062 " fill-opacity="1" fill-rule="nonzero"/><path fill="rgb(59.999084%, 23.139954%, 10.978699%)" d="M 402.371094 709.992188 C 382.023438 709.992188 360.230469 703.570312 340.875 702.429688 C 302.050781 700.125 264.027344 694.71875 230.960938 670.980469 C 219.578125 662.816406 215.09375 652.390625 215.09375 641.144531 C 215.09375 617.277344 235.402344 589.789062 252.882812 572.816406 L 252.949219 572.75 C 252.949219 572.75 252.96875 572.75 252.96875 572.730469 L 253.097656 572.601562 C 253.121094 572.601562 253.121094 572.578125 253.121094 572.578125 L 253.183594 572.511719 L 253.207031 572.511719 C 253.226562 572.492188 253.226562 572.46875 253.25 572.46875 C 253.269531 572.449219 253.269531 572.449219 253.269531 572.425781 C 253.292969 572.425781 253.3125 572.382812 253.335938 572.382812 C 253.355469 572.363281 253.355469 572.339844 253.378906 572.339844 C 253.378906 572.339844 253.378906 572.320312 253.398438 572.320312 C 261.957031 564.199219 273.230469 557.671875 285.777344 552.394531 C 275.839844 585.71875 285.152344 620.960938 319.511719 636.277344 C 318.605469 638.085938 317.746094 639.832031 316.902344 641.488281 C 315.332031 644.890625 313.992188 648.058594 312.851562 650.902344 C 311.816406 653.8125 310.996094 656.351562 310.351562 658.421875 C 309.425781 662.664062 308.972656 665.097656 308.972656 665.097656 C 308.972656 665.097656 309.984375 662.816406 311.664062 658.828125 C 312.65625 656.933594 313.863281 654.652344 315.265625 652.023438 C 316.796875 649.460938 318.519531 646.574219 320.394531 643.425781 C 321.410156 641.875 322.464844 640.28125 323.542969 638.625 C 323.671875 638.453125 323.800781 638.257812 323.910156 638.0625 C 327.144531 639.292969 330.570312 640.324219 334.191406 641.1875 C 338.503906 642.222656 342.511719 642.695312 346.261719 642.695312 C 364.972656 642.695312 377.28125 630.738281 389.179688 615.207031 C 395.667969 606.765625 402.007812 597.628906 410.199219 590.671875 C 413.667969 591.148438 417.050781 591.511719 420.328125 591.816406 C 420.867188 593.429688 421.34375 595.28125 421.773438 597.242188 C 419.078125 600.691406 416.382812 604.136719 413.734375 607.539062 C 410.78125 611.308594 408 615.121094 405.238281 618.742188 C 402.460938 622.359375 399.894531 625.957031 397.414062 629.316406 C 394.9375 632.699219 392.671875 635.929688 390.558594 638.925781 C 382.152344 650.859375 377.023438 659.21875 377 659.21875 C 377 659.21875 383.984375 652.324219 393.6875 641.402344 C 396.144531 638.6875 398.773438 635.738281 401.488281 632.550781 C 404.226562 629.382812 407.136719 626.066406 410.046875 622.554688 C 412.933594 619.042969 416.019531 615.46875 419.015625 611.742188 C 420.480469 609.886719 421.988281 608.058594 423.476562 606.203125 C 424.207031 610.425781 424.8125 613.980469 425.480469 615.058594 C 428.757812 620.507812 432.617188 622.511719 436.710938 622.488281 C 442.316406 622.488281 448.4375 618.785156 454.28125 615.035156 C 460.121094 611.332031 465.726562 607.605469 470.296875 607.605469 C 472.6875 607.605469 474.800781 608.617188 476.523438 611.136719 C 479.21875 615.101562 484.609375 617.277344 489.609375 617.277344 C 491.097656 617.277344 492.539062 617.082031 493.855469 616.671875 C 500.367188 614.757812 505.5625 610.101562 510.972656 606.269531 C 516.1875 602.585938 520.585938 601.226562 524.832031 601.226562 C 532.269531 601.226562 539.210938 605.34375 549.210938 608.164062 C 551.128906 608.703125 553.222656 608.960938 555.417969 608.960938 C 574.582031 608.960938 602.066406 589.617188 614.351562 578.609375 C 619.570312 573.933594 622.824219 568.875 624.59375 563.636719 C 645.542969 579.363281 653.476562 594.789062 641.75 603.640625 L 641.730469 603.664062 L 641.707031 603.664062 C 641.707031 603.664062 641.707031 603.683594 641.6875 603.683594 L 641.6875 603.707031 L 641.664062 603.707031 C 641.644531 603.726562 641.621094 603.726562 641.621094 603.75 L 641.601562 603.75 C 641.601562 603.75 641.601562 603.769531 641.578125 603.769531 C 641.554688 603.769531 641.554688 603.769531 641.554688 603.792969 L 641.535156 603.792969 C 641.535156 603.8125 641.535156 603.8125 641.511719 603.8125 C 641.492188 603.835938 641.46875 603.855469 641.449219 603.855469 L 641.425781 603.878906 C 641.425781 603.878906 641.425781 603.898438 641.40625 603.898438 L 641.382812 603.898438 L 641.382812 603.921875 L 641.363281 603.921875 L 641.339844 603.941406 L 641.320312 603.964844 L 641.296875 603.964844 L 641.253906 604.007812 C 641.234375 604.007812 641.234375 604.007812 641.234375 604.027344 L 641.210938 604.027344 C 641.210938 604.050781 641.191406 604.050781 641.191406 604.050781 C 607.972656 627.273438 567.101562 631.277344 533.734375 638.019531 C 516.078125 641.597656 492.175781 641.855469 476.761719 647.929688 C 454.429688 656.71875 462.234375 670.980469 449.449219 687.976562 C 436.539062 705.164062 420.003906 709.992188 402.371094 709.992188 " fill-opacity="1" fill-rule="nonzero"/><path fill="rgb(69.799805%, 33.329773%, 12.159729%)" d="M 640.523438 578.566406 C 641.878906 584.125 640.242188 588.972656 635.003906 592.632812 C 601.808594 615.855469 560.9375 619.863281 527.570312 626.605469 C 509.894531 630.179688 486.007812 630.4375 470.597656 636.511719 C 448.242188 645.300781 456.046875 659.5625 443.265625 676.558594 C 415.457031 713.609375 370.816406 693.144531 334.710938 691.011719 C 295.886719 688.707031 257.863281 683.300781 224.796875 659.5625 C 221.519531 657.214844 218.976562 654.628906 216.777344 651.9375 C 218.933594 658.980469 223.328125 665.507812 230.960938 670.980469 C 264.027344 694.71875 302.050781 700.125 340.875 702.429688 C 376.980469 704.5625 421.621094 725.027344 449.449219 687.976562 C 462.234375 670.980469 454.429688 656.71875 476.761719 647.929688 C 492.175781 641.855469 516.078125 641.597656 533.734375 638.019531 C 567.101562 631.277344 607.972656 627.273438 641.191406 604.050781 C 649.746094 598.0625 648.734375 588.863281 640.523438 578.566406 " fill-opacity="1" fill-rule="nonzero"/><path fill="rgb(50.588989%, 17.248535%, 9.408569%)" d="M 377 659.21875 C 377 659.21875 382.152344 650.859375 390.558594 638.925781 C 392.671875 635.929688 394.9375 632.699219 397.414062 629.316406 C 399.894531 625.957031 402.460938 622.359375 405.238281 618.742188 C 408 615.121094 410.78125 611.308594 413.734375 607.539062 C 416.6875 603.769531 419.683594 599.9375 422.65625 596.101562 C 425.71875 592.308594 428.777344 588.519531 431.796875 584.8125 C 434.769531 581.042969 437.855469 577.488281 440.765625 573.976562 C 443.652344 570.46875 446.5625 567.128906 449.300781 563.960938 C 452.015625 560.796875 454.667969 557.84375 457.101562 555.109375 C 466.824219 544.207031 473.789062 537.316406 473.789062 537.316406 C 473.789062 537.316406 468.679688 545.652344 460.25 557.605469 C 458.136719 560.601562 455.875 563.855469 453.394531 567.214844 C 450.9375 570.597656 448.351562 574.171875 445.59375 577.792969 C 442.8125 581.433594 440.050781 585.246094 437.078125 588.992188 C 434.125 592.761719 431.128906 596.597656 428.132812 600.429688 C 425.070312 604.222656 422.03125 608.015625 419.015625 611.742188 C 416.019531 615.46875 412.933594 619.042969 410.046875 622.554688 C 407.136719 626.066406 404.226562 629.382812 401.488281 632.550781 C 398.773438 635.738281 396.144531 638.6875 393.6875 641.402344 C 383.984375 652.324219 377 659.21875 377 659.21875 " fill-opacity="1" fill-rule="nonzero"/><path fill="rgb(50.588989%, 17.248535%, 9.408569%)" d="M 308.972656 665.097656 C 308.972656 665.097656 309.425781 662.664062 310.351562 658.421875 C 310.996094 656.351562 311.816406 653.8125 312.851562 650.902344 C 313.992188 648.058594 315.332031 644.890625 316.902344 641.488281 C 318.605469 638.171875 320.332031 634.464844 322.507812 630.78125 C 324.640625 627.078125 326.839844 623.113281 329.449219 619.257812 C 331.949219 615.316406 334.621094 611.289062 337.511719 607.347656 C 340.3125 603.316406 343.4375 599.441406 346.414062 595.457031 C 349.582031 591.597656 352.730469 587.742188 355.941406 584.039062 C 359.152344 580.355469 362.429688 576.800781 365.707031 573.460938 C 367.34375 571.800781 368.898438 570.121094 370.511719 568.570312 C 372.171875 567.042969 373.769531 565.535156 375.34375 564.070312 C 378.402344 561.074219 381.636719 558.578125 384.503906 556.164062 C 387.390625 553.792969 390.28125 551.878906 392.714844 550.066406 C 395.300781 548.429688 397.609375 547.117188 399.484375 545.996094 C 401.445312 545.003906 403.0625 544.378906 404.117188 543.90625 C 405.175781 543.433594 405.734375 543.195312 405.734375 543.195312 C 405.734375 543.195312 403.753906 544.640625 400.238281 547.160156 C 398.621094 548.539062 396.640625 550.238281 394.375 552.179688 C 392.242188 554.3125 389.761719 556.550781 387.175781 559.15625 C 385.902344 560.472656 384.589844 561.871094 383.230469 563.292969 C 381.832031 564.695312 380.429688 566.179688 379.027344 567.753906 C 377.605469 569.304688 376.160156 570.917969 374.671875 572.535156 C 373.230469 574.195312 371.742188 575.894531 370.234375 577.640625 C 367.128906 581.023438 364.242188 584.792969 361.09375 588.433594 C 357.96875 592.09375 354.949219 595.972656 351.890625 599.785156 C 348.894531 603.664062 345.765625 607.410156 342.945312 611.332031 C 341.519531 613.269531 340.078125 615.164062 338.632812 617.039062 C 337.210938 618.933594 335.871094 620.851562 334.535156 622.703125 C 331.820312 626.410156 329.320312 630.050781 326.925781 633.519531 C 325.675781 635.242188 324.640625 636.964844 323.542969 638.625 C 322.464844 640.28125 321.410156 641.875 320.394531 643.425781 C 318.519531 646.574219 316.796875 649.460938 315.265625 652.023438 C 313.863281 654.652344 312.65625 656.933594 311.664062 658.828125 C 309.984375 662.816406 308.972656 665.097656 308.972656 665.097656 " fill-opacity="1" fill-rule="nonzero"/><path fill="rgb(50.588989%, 17.248535%, 9.408569%)" d="M 448.328125 640.109375 C 448.328125 640.109375 449.148438 638.472656 450.722656 635.652344 C 452.273438 632.851562 454.558594 628.867188 457.46875 624.234375 C 458.914062 621.90625 460.488281 619.386719 462.253906 616.78125 C 463.980469 614.152344 465.789062 611.394531 467.773438 608.59375 C 469.734375 605.816406 471.738281 602.886719 473.875 600 C 475.984375 597.09375 478.207031 594.183594 480.40625 591.277344 C 482.648438 588.410156 484.890625 585.523438 487.171875 582.722656 C 489.4375 579.945312 491.765625 577.273438 493.984375 574.667969 C 498.46875 569.453125 502.824219 564.757812 506.769531 560.882812 C 508.730469 558.964844 510.519531 557.199219 512.222656 555.710938 C 513.902344 554.226562 515.390625 552.933594 516.640625 551.921875 C 519.226562 549.960938 520.734375 548.925781 520.734375 548.925781 C 520.734375 548.925781 519.636719 550.433594 517.632812 552.910156 C 516.683594 554.183594 515.519531 555.734375 514.203125 557.5 C 512.867188 559.265625 511.445312 561.355469 509.808594 563.507812 C 508.191406 565.707031 506.445312 568.074219 504.613281 570.617188 C 502.738281 573.09375 500.863281 575.808594 498.769531 578.503906 C 496.722656 581.214844 494.695312 584.101562 492.496094 586.925781 C 490.34375 589.769531 488.144531 592.65625 485.945312 595.542969 C 483.703125 598.40625 481.460938 601.269531 479.261719 604.09375 C 477.0625 606.914062 474.800781 609.609375 472.6875 612.277344 C 470.574219 614.972656 468.421875 617.46875 466.414062 619.882812 C 464.433594 622.296875 462.46875 624.535156 460.679688 626.605469 C 457.125 630.738281 454.019531 634.121094 451.820312 636.46875 C 449.644531 638.816406 448.328125 640.109375 448.328125 640.109375 " fill-opacity="1" fill-rule="nonzero"/><path fill="rgb(50.588989%, 17.248535%, 9.408569%)" d="M 524.25 616.890625 C 524.25 616.890625 524.703125 615.617188 525.628906 613.484375 C 526.578125 611.351562 527.914062 608.316406 529.789062 604.824219 C 531.578125 601.3125 533.886719 597.308594 536.472656 593.105469 C 537.785156 590.996094 539.125 588.820312 540.589844 586.6875 C 542.035156 584.554688 543.585938 582.421875 545.117188 580.269531 C 546.667969 578.136719 548.199219 576.003906 549.878906 574 C 551.519531 571.976562 553.15625 570.015625 554.75 568.140625 C 556.324219 566.222656 558.027344 564.523438 559.644531 562.882812 C 561.21875 561.246094 562.792969 559.738281 564.214844 558.382812 C 564.96875 557.691406 565.59375 557.003906 566.328125 556.445312 C 567.058594 555.882812 567.75 555.34375 568.394531 554.851562 C 569.667969 553.816406 570.832031 552.996094 571.78125 552.308594 C 573.65625 550.949219 574.777344 550.238281 574.777344 550.238281 C 574.777344 550.238281 574.066406 551.425781 572.730469 553.320312 C 572.0625 554.269531 571.285156 555.429688 570.316406 556.679688 C 569.367188 557.953125 568.308594 559.375 567.230469 561.03125 C 566.15625 562.648438 564.96875 564.414062 563.652344 566.222656 C 562.359375 568.03125 560.980469 569.929688 559.621094 571.953125 C 556.90625 576.003906 553.738281 580.117188 550.742188 584.382812 C 549.210938 586.472656 547.660156 588.582031 546.109375 590.609375 C 544.554688 592.65625 543.023438 594.679688 541.539062 596.617188 C 540.070312 598.578125 538.542969 600.386719 537.140625 602.132812 C 535.761719 603.921875 534.382812 605.535156 533.109375 607.042969 C 530.566406 610.058594 528.386719 612.539062 526.792969 614.238281 C 525.21875 615.941406 524.25 616.890625 524.25 616.890625 " fill-opacity="1" fill-rule="nonzero"/><path fill="rgb(50.588989%, 17.248535%, 9.408569%)" d="M 578.613281 602.800781 C 578.613281 602.800781 578.550781 602.003906 578.722656 600.667969 C 578.828125 599.289062 579.195312 597.394531 579.757812 595.175781 C 580.035156 594.054688 580.445312 592.890625 580.898438 591.664062 C 581.351562 590.4375 581.824219 589.121094 582.429688 587.851562 C 583.074219 586.582031 583.742188 585.265625 584.476562 583.953125 C 584.84375 583.304688 585.1875 582.636719 585.574219 581.992188 L 586.890625 580.117188 C 587.773438 578.890625 588.660156 577.640625 589.585938 576.457031 C 590.449219 575.25 591.546875 574.238281 592.539062 573.203125 C 593.550781 572.191406 594.566406 571.242188 595.535156 570.359375 C 596.03125 569.929688 596.484375 569.496094 596.980469 569.109375 C 597.496094 568.765625 597.972656 568.421875 598.464844 568.074219 C 600.386719 566.804688 602.042969 565.835938 603.253906 565.210938 C 604.4375 564.585938 605.171875 564.285156 605.171875 564.285156 C 605.171875 564.285156 604.847656 565.039062 604.199219 566.222656 C 603.554688 567.410156 602.605469 569.046875 601.398438 570.875 C 600.75 571.757812 600.105469 572.730469 599.480469 573.828125 C 598.832031 574.90625 598.121094 576.003906 597.367188 577.125 C 596.613281 578.222656 595.75 579.300781 595.019531 580.527344 C 594.285156 581.710938 593.464844 582.875 592.644531 584.058594 C 591.785156 585.179688 590.988281 586.386719 590.210938 587.550781 C 589.433594 588.710938 588.617188 589.855469 587.796875 590.929688 C 587 592.03125 586.246094 593.105469 585.53125 594.121094 C 584.777344 595.132812 584.023438 596.035156 583.378906 596.941406 C 582.039062 598.707031 580.832031 600.152344 579.992188 601.183594 C 579.132812 602.199219 578.613281 602.800781 578.613281 602.800781 " fill-opacity="1" fill-rule="nonzero"/><path fill="rgb(50.588989%, 17.248535%, 9.408569%)" d="M 246.027344 649.523438 C 246.027344 649.523438 246.4375 647.671875 247.300781 644.503906 C 247.753906 642.910156 248.164062 640.972656 249.003906 638.816406 C 249.757812 636.640625 250.578125 634.164062 251.652344 631.515625 C 252.773438 628.910156 253.9375 626.066406 255.363281 623.136719 C 256.871094 620.25 258.316406 617.125 260.148438 614.089844 C 261.980469 611.03125 263.746094 607.796875 265.902344 604.761719 C 267.949219 601.617188 270.214844 598.578125 272.476562 595.542969 C 274.804688 592.546875 277.261719 589.640625 279.699219 586.816406 C 282.15625 583.996094 284.742188 581.367188 287.285156 578.890625 C 289.765625 576.328125 292.460938 574.152344 294.894531 571.996094 C 297.460938 569.949219 299.832031 567.988281 302.222656 566.417969 C 303.410156 565.621094 304.507812 564.800781 305.609375 564.113281 C 306.730469 563.445312 307.785156 562.820312 308.777344 562.238281 C 310.738281 560.988281 312.65625 560.234375 314.125 559.480469 C 315.632812 558.769531 316.902344 558.402344 317.722656 558.082031 C 318.542969 557.78125 318.996094 557.605469 318.996094 557.605469 C 318.996094 557.605469 318.605469 557.910156 317.894531 558.425781 C 317.183594 558.964844 316.128906 559.675781 314.835938 560.664062 C 313.585938 561.742188 312.011719 562.882812 310.328125 564.414062 C 308.625 565.902344 306.75 567.601562 304.769531 569.519531 C 302.742188 571.371094 300.714844 573.613281 298.453125 575.808594 C 296.316406 578.15625 294.011719 580.546875 291.75 583.15625 C 290.605469 584.449219 289.421875 585.71875 288.277344 587.097656 C 287.15625 588.476562 286.015625 589.855469 284.828125 591.210938 C 282.523438 593.992188 280.214844 596.855469 277.996094 599.785156 C 275.753906 602.691406 273.511719 605.601562 271.441406 608.574219 C 269.332031 611.503906 267.304688 614.433594 265.363281 617.296875 C 263.445312 620.164062 261.679688 623.007812 259.910156 625.632812 C 258.273438 628.347656 256.71875 630.933594 255.234375 633.28125 C 253.851562 635.695312 252.582031 637.890625 251.4375 639.851562 C 250.273438 641.789062 249.390625 643.578125 248.570312 645.023438 C 247 647.910156 246.027344 649.523438 246.027344 649.523438 " fill-opacity="1" fill-rule="nonzero"/><path fill="rgb(66.668701%, 42.349243%, 29.40979%)" d="M 457.382812 594.507812 C 457.988281 594.078125 458.589844 593.6875 459.195312 593.324219 L 465.378906 593.496094 L 464.214844 593.882812 C 461.953125 594.226562 459.667969 594.441406 457.382812 594.507812 " fill-opacity="1" fill-rule="nonzero"/><path fill="rgb(68.238831%, 45.098877%, 29.40979%)" d="M 455.9375 594.527344 C 451.089844 594.527344 446.261719 593.882812 441.691406 592.761719 L 459.195312 593.324219 C 458.589844 593.6875 457.988281 594.078125 457.382812 594.507812 C 456.886719 594.507812 456.414062 594.527344 455.9375 594.527344 M 441.691406 592.761719 L 434.320312 592.527344 C 434.726562 591.988281 435.160156 591.449219 435.570312 590.910156 C 437.550781 591.621094 439.601562 592.246094 441.691406 592.761719 " fill-opacity="1" fill-rule="nonzero"/><path fill="rgb(87.449646%, 87.059021%, 87.059021%)" d="M 334.558594 537.941406 C 342.058594 532.769531 353.074219 528.9375 362.710938 526.542969 C 391.316406 519.4375 419.660156 513.296875 448.179688 507.242188 C 470.488281 502.527344 506.078125 495.09375 522.03125 481.027344 C 549.554688 456.75 511.402344 456.363281 488.335938 455.457031 C 473.378906 454.875 415.972656 454.511719 425.113281 432.625 C 431.171875 418.234375 472.925781 406.105469 488.335938 401.667969 C 512.824219 394.59375 539.382812 387.738281 561.5 375.769531 C 571.304688 370.484375 579.085938 363.609375 582.492188 355.851562 C 593.402344 362.457031 620.410156 362.800781 627.890625 372.800781 C 636.535156 384.394531 628.753906 395.402344 615.796875 402.394531 C 600.535156 410.628906 582.234375 415.371094 565.335938 420.214844 C 554.707031 423.320312 525.929688 431.675781 521.75 441.605469 C 515.453125 456.6875 555.03125 456.921875 565.335938 457.332031 C 581.242188 457.957031 607.542969 458.238281 588.574219 474.953125 C 577.578125 484.667969 561.390625 480.382812 532.699219 488.265625 C 511.425781 494.125 487.066406 504.464844 470.53125 521.785156 C 465.898438 521.375 461.175781 521.179688 456.414062 521.179688 C 427.421875 521.179688 396.402344 527.964844 370.554688 531.734375 C 369.910156 531.820312 369.242188 531.929688 368.574219 532.015625 C 358.292969 533.546875 346.609375 535.417969 334.558594 537.941406 M 543.84375 532.574219 L 499.160156 528.160156 C 491.507812 525.144531 483.292969 523.269531 474.734375 522.234375 C 482.109375 518.121094 493.382812 513.46875 510.476562 509.140625 C 535.824219 502.71875 552.550781 501.039062 566.023438 501.039062 C 573.484375 501.039062 579.949219 501.554688 586.308594 502.074219 C 592.109375 502.527344 597.796875 503 604.113281 503.085938 C 598.316406 509.765625 590.769531 515.300781 582.945312 518.832031 C 569.839844 524.734375 557.402344 529.128906 543.84375 532.574219 M 663.328125 375.914062 C 640.15625 362.761719 604.609375 355.910156 582.644531 355.5 C 585.621094 348.480469 584.992188 340.75 579.085938 332.828125 C 568.050781 318.09375 527.570312 317.84375 512.394531 307.765625 C 560.160156 308.371094 654.273438 330.492188 662.917969 373.558594 C 663.089844 374.355469 663.21875 375.148438 663.328125 375.914062 " fill-opacity="1" fill-rule="nonzero"/><path fill="rgb(66.668701%, 42.349243%, 29.40979%)" d="M 425.761719 592.246094 L 425.546875 592.246094 C 423.84375 592.117188 422.097656 591.988281 420.328125 591.816406 C 419.25 588.691406 417.957031 586.558594 416.320312 586.558594 C 415.886719 586.558594 415.414062 586.710938 414.917969 587.054688 C 413.28125 588.175781 411.707031 589.378906 410.199219 590.671875 C 405.347656 590.027344 400.347656 589.207031 395.300781 588.238281 C 400.582031 582.898438 407.222656 576.949219 413.453125 573.332031 C 415.585938 578.890625 421.40625 584.210938 429.101562 588.109375 C 428.003906 589.488281 426.882812 590.867188 425.761719 592.246094 M 328.542969 558.535156 C 326.839844 556.140625 325.980469 553.859375 325.785156 551.683594 C 343.160156 551.1875 363.679688 544.8125 372.863281 542.527344 C 396.726562 536.605469 421.105469 531.671875 445.808594 531.304688 C 447.8125 531.261719 449.816406 531.261719 451.84375 531.261719 C 455.441406 531.261719 459.085938 531.304688 462.730469 531.390625 C 461.371094 533.027344 461.027344 533.996094 461.027344 533.996094 C 461.566406 533.113281 462.148438 532.253906 462.730469 531.390625 C 484.394531 531.929688 506.445312 533.910156 528.109375 536.066406 C 527.117188 536.257812 526.125 536.453125 525.113281 536.625 C 515.929688 538.328125 506.230469 539.46875 496.378906 540.480469 C 488.683594 539.621094 480.988281 538.757812 473.292969 538.113281 C 473.636719 537.59375 473.789062 537.316406 473.789062 537.316406 C 473.789062 537.316406 473.527344 537.574219 473.03125 538.089844 C 465.789062 537.488281 458.570312 537.101562 451.324219 537.101562 C 446.972656 537.101562 442.617188 537.230469 438.242188 537.574219 C 403.148438 540.203125 370.105469 553.148438 335.246094 555.925781 C 333.351562 556.078125 331.042969 557.003906 328.542969 558.535156 M 334.492188 537.984375 C 334.515625 537.960938 334.535156 537.960938 334.558594 537.941406 C 346.609375 535.417969 358.289062 533.546875 368.574219 532.015625 C 358.246094 533.546875 346.566406 535.460938 334.492188 537.984375 " fill-opacity="1" fill-rule="nonzero"/><path fill="rgb(84.309387%, 81.959534%, 81.17981%)" d="M 368.574219 532.015625 C 369.242188 531.929688 369.910156 531.820312 370.554688 531.734375 C 369.910156 531.820312 369.242188 531.929688 368.574219 532.015625 " fill-opacity="1" fill-rule="nonzero"/><path fill="rgb(68.238831%, 45.098877%, 29.40979%)" d="M 325.785156 551.683594 C 325.332031 546.425781 328.910156 541.839844 334.492188 537.984375 C 346.566406 535.460938 358.246094 533.546875 368.574219 532.015625 C 369.242188 531.929688 369.910156 531.820312 370.554688 531.734375 C 396.402344 527.964844 427.421875 521.179688 456.414062 521.179688 C 461.175781 521.179688 465.898438 521.375 470.53125 521.785156 C 467.6875 524.777344 465.058594 527.964844 462.730469 531.390625 C 459.085938 531.304688 455.445312 531.261719 451.84375 531.261719 C 449.816406 531.261719 447.8125 531.261719 445.808594 531.304688 C 421.105469 531.671875 396.726562 536.605469 372.863281 542.527344 C 363.679688 544.8125 343.160156 551.1875 325.785156 551.683594 M 528.109375 536.066406 C 506.445312 533.910156 484.394531 531.929688 462.730469 531.390625 C 464.519531 529.238281 468.011719 525.960938 474.734375 522.234375 C 483.292969 523.269531 491.507812 525.144531 499.160156 528.160156 L 543.84375 532.574219 C 538.777344 533.847656 533.5625 535.011719 528.109375 536.066406 " fill-opacity="1" fill-rule="nonzero"/><path fill="rgb(68.238831%, 45.098877%, 29.40979%)" d="M 395.300781 588.238281 C 385.882812 586.40625 376.289062 584.015625 367.257812 581.042969 C 368.25 579.878906 369.21875 578.738281 370.234375 577.640625 C 371.742188 575.894531 373.230469 574.195312 374.671875 572.535156 C 376.160156 570.917969 377.605469 569.304688 379.027344 567.753906 C 380.429688 566.179688 381.832031 564.695312 383.230469 563.292969 C 384.589844 561.871094 385.902344 560.472656 387.175781 559.15625 C 389.761719 556.550781 392.242188 554.3125 394.375 552.179688 C 396.640625 550.238281 398.621094 548.539062 400.238281 547.160156 C 403.753906 544.640625 405.734375 543.195312 405.734375 543.195312 C 405.734375 543.195312 405.175781 543.433594 404.117188 543.90625 C 403.0625 544.378906 401.445312 545.003906 399.484375 545.996094 C 397.609375 547.117188 395.300781 548.429688 392.714844 550.066406 C 390.28125 551.878906 387.390625 553.792969 384.503906 556.164062 C 381.636719 558.578125 378.402344 561.074219 375.34375 564.070312 C 373.769531 565.535156 372.171875 567.042969 370.511719 568.570312 C 368.898438 570.121094 367.34375 571.804688 365.707031 573.460938 C 364.023438 575.164062 362.363281 576.929688 360.707031 578.71875 C 351.714844 575.335938 343.570312 571.308594 337.082031 566.613281 C 333.15625 563.8125 330.375 561.097656 328.542969 558.535156 C 331.042969 557.003906 333.351562 556.078125 335.246094 555.925781 C 370.105469 553.148438 403.148438 540.203125 438.242188 537.574219 C 442.617188 537.230469 446.972656 537.101562 451.328125 537.101562 C 458.570312 537.101562 465.789062 537.488281 473.03125 538.089844 C 472.042969 539.082031 470.1875 540.957031 467.6875 543.605469 C 454.949219 545.265625 442.53125 547.527344 431.214844 551.445312 C 414.722656 557.175781 410.476562 565.511719 413.453125 573.332031 C 407.222656 576.949219 400.582031 582.898438 395.300781 588.238281 M 469.949219 543.304688 C 471.566406 540.871094 472.6875 539.082031 473.292969 538.113281 C 480.988281 538.757812 488.683594 539.621094 496.378906 540.480469 C 487.605469 541.386719 478.722656 542.226562 469.949219 543.304688 " fill-opacity="1" fill-rule="nonzero"/><path fill="rgb(62.748718%, 39.608765%, 27.449036%)" d="M 420.328125 591.816406 C 417.050781 591.511719 413.667969 591.148438 410.199219 590.671875 C 411.707031 589.378906 413.28125 588.175781 414.917969 587.054688 C 415.414062 586.710938 415.886719 586.558594 416.320312 586.558594 C 417.957031 586.558594 419.25 588.691406 420.328125 591.816406 " fill-opacity="1" fill-rule="nonzero"/><path fill="rgb(56.469727%, 34.118652%, 24.308777%)" d="M 434.320312 592.527344 L 425.761719 592.246094 C 426.882812 590.867188 428.003906 589.488281 429.101562 588.109375 C 431.148438 589.164062 433.304688 590.089844 435.570312 590.910156 C 435.160156 591.449219 434.726562 591.988281 434.320312 592.527344 M 467.6875 543.605469 C 470.1875 540.957031 472.042969 539.082031 473.03125 538.089844 C 473.527344 537.574219 473.789062 537.316406 473.789062 537.316406 C 473.789062 537.316406 473.636719 537.59375 473.292969 538.113281 C 472.6875 539.082031 471.566406 540.871094 469.949219 543.304688 C 469.195312 543.410156 468.441406 543.496094 467.6875 543.605469 " fill-opacity="1" fill-rule="nonzero"/><path fill="rgb(56.469727%, 34.118652%, 24.308777%)" d="M 367.257812 581.042969 C 365.039062 580.289062 362.859375 579.535156 360.707031 578.71875 C 362.363281 576.929688 364.023438 575.164062 365.707031 573.460938 C 367.34375 571.804688 368.898438 570.121094 370.511719 568.570312 C 372.171875 567.042969 373.769531 565.535156 375.34375 564.070312 C 378.402344 561.074219 381.636719 558.578125 384.503906 556.164062 C 387.390625 553.792969 390.28125 551.878906 392.714844 550.066406 C 395.300781 548.429688 397.609375 547.117188 399.484375 545.996094 C 401.445312 545.003906 403.0625 544.378906 404.117188 543.90625 C 405.175781 543.433594 405.734375 543.195312 405.734375 543.195312 C 405.734375 543.195312 403.753906 544.640625 400.238281 547.160156 C 398.621094 548.539062 396.640625 550.238281 394.375 552.179688 C 392.242188 554.3125 389.761719 556.550781 387.175781 559.15625 C 385.902344 560.472656 384.589844 561.871094 383.230469 563.292969 C 381.832031 564.695312 380.429688 566.179688 379.027344 567.753906 C 377.605469 569.304688 376.160156 570.917969 374.671875 572.535156 C 373.230469 574.195312 371.742188 575.894531 370.234375 577.640625 C 369.21875 578.738281 368.25 579.878906 367.257812 581.042969 " fill-opacity="1" fill-rule="nonzero"/><path fill="rgb(87.449646%, 87.059021%, 87.059021%)" d="M 606.054688 503.109375 C 605.40625 503.109375 604.738281 503.109375 604.113281 503.085938 C 614.417969 491.214844 619.226562 475.835938 610.410156 461.984375 C 599.542969 444.925781 559.105469 457.398438 555.980469 444.105469 C 552.875 430.859375 588.660156 418.515625 606.679688 414.550781 C 636.167969 408.089844 667.058594 403 663.328125 375.914062 C 675.121094 382.613281 683.71875 390.933594 685.703125 400.878906 C 690.378906 424.007812 660.65625 425.234375 637.589844 431.351562 C 628.753906 433.703125 611.636719 440.054688 611.980469 449.535156 C 612.328125 458.992188 644.703125 455.15625 652.207031 466.917969 C 661.710938 481.867188 649.101562 498.089844 630.585938 501.039062 C 620.992188 502.589844 613.125 503.109375 606.054688 503.109375 M 582.492188 355.851562 C 582.300781 355.734375 582.105469 355.609375 581.910156 355.484375 C 582.148438 355.492188 582.40625 355.492188 582.644531 355.5 C 582.601562 355.617188 582.535156 355.734375 582.492188 355.851562 " fill-opacity="1" fill-rule="nonzero"/><path fill="rgb(79.998779%, 79.60968%, 79.60968%)" d="M 474.734375 522.234375 C 473.335938 522.0625 471.957031 521.914062 470.53125 521.785156 C 487.066406 504.464844 511.425781 494.125 532.699219 488.265625 C 561.390625 480.382812 577.578125 484.667969 588.574219 474.953125 C 607.542969 458.238281 581.242188 457.957031 565.335938 457.332031 C 555.03125 456.921875 515.453125 456.6875 521.75 441.605469 C 525.929688 431.675781 554.707031 423.320312 565.335938 420.214844 C 582.234375 415.371094 600.535156 410.628906 615.796875 402.394531 C 628.753906 395.402344 636.535156 384.394531 627.890625 372.800781 C 620.410156 362.800781 593.402344 362.457031 582.492188 355.851562 C 582.535156 355.734375 582.601562 355.617188 582.644531 355.5 C 604.609375 355.910156 640.15625 362.761719 663.328125 375.914062 C 667.058594 403 636.167969 408.089844 606.679688 414.550781 C 588.660156 418.515625 552.875 430.859375 555.980469 444.105469 C 559.105469 457.398438 599.542969 444.925781 610.410156 461.984375 C 619.226562 475.835938 614.417969 491.214844 604.113281 503.085938 C 597.796875 503 592.109375 502.527344 586.308594 502.074219 C 579.949219 501.554688 573.484375 501.039062 566.023438 501.039062 C 552.550781 501.039062 535.824219 502.71875 510.476562 509.140625 C 493.382812 513.46875 482.109375 518.121094 474.734375 522.234375 " fill-opacity="1" fill-rule="nonzero"/><path fill="rgb(67.449951%, 52.549744%, 43.139648%)" d="M 461.027344 533.996094 C 461.027344 533.996094 461.371094 533.027344 462.730469 531.390625 C 462.148438 532.253906 461.566406 533.113281 461.027344 533.996094 " fill-opacity="1" fill-rule="nonzero"/><path fill="rgb(68.629456%, 54.508972%, 43.528748%)" d="M 462.730469 531.390625 C 465.058594 527.964844 467.6875 524.777344 470.53125 521.785156 C 471.957031 521.914062 473.335938 522.0625 474.734375 522.234375 C 468.011719 525.960938 464.519531 529.238281 462.730469 531.390625 " fill-opacity="1" fill-rule="nonzero"/></svg>